<svg style="position: absolute; width: 0; height: 0; overflow: hidden;" version="1.1" xmlns="http://www.w3.org/2000/svg">
<defs>
<symbol id="icon-plus" viewBox="0 0 22 28">
<title>plus</title>
<path d="M22 11.5v3c0 0.828-0.672 1.5-1.5 1.5h-6.5v6.5c0 0.828-0.672 1.5-1.5 1.5h-3c-0.828 0-1.5-0.672-1.5-1.5v-6.5h-6.5c-0.828 0-1.5-0.672-1.5-1.5v-3c0-0.828 0.672-1.5 1.5-1.5h6.5v-6.5c0-0.828 0.672-1.5 1.5-1.5h3c0.828 0 1.5 0.672 1.5 1.5v6.5h6.5c0.828 0 1.5 0.672 1.5 1.5z"></path>
</symbol>
<symbol id="icon-question" viewBox="0 0 17 28">
<title>question</title>
<path d="M11 19.625v3.75c0 0.344-0.281 0.625-0.625 0.625h-3.75c-0.344 0-0.625-0.281-0.625-0.625v-3.75c0-0.344 0.281-0.625 0.625-0.625h3.75c0.344 0 0.625 0.281 0.625 0.625zM15.937 10.25c0 2.969-2.016 4.109-3.5 4.937-0.922 0.531-1.5 1.609-1.5 2.063v0c0 0.344-0.266 0.75-0.625 0.75h-3.75c-0.344 0-0.562-0.531-0.562-0.875v-0.703c0-1.891 1.875-3.516 3.25-4.141 1.203-0.547 1.703-1.062 1.703-2.063 0-0.875-1.141-1.656-2.406-1.656-0.703 0-1.344 0.219-1.687 0.453-0.375 0.266-0.75 0.641-1.672 1.797-0.125 0.156-0.313 0.25-0.484 0.25-0.141 0-0.266-0.047-0.391-0.125l-2.562-1.953c-0.266-0.203-0.328-0.547-0.156-0.828 1.687-2.797 4.062-4.156 7.25-4.156 3.344 0 7.094 2.672 7.094 6.25z"></path>
</symbol>
<symbol id="icon-minus" viewBox="0 0 22 28">
<title>minus</title>
<path d="M22 11.5v3c0 0.828-0.672 1.5-1.5 1.5h-19c-0.828 0-1.5-0.672-1.5-1.5v-3c0-0.828 0.672-1.5 1.5-1.5h19c0.828 0 1.5 0.672 1.5 1.5z"></path>
</symbol>
<symbol id="icon-search" viewBox="0 0 26 28">
<title>search</title>
<path d="M18 13c0-3.859-3.141-7-7-7s-7 3.141-7 7 3.141 7 7 7 7-3.141 7-7zM26 26c0 1.094-0.906 2-2 2-0.531 0-1.047-0.219-1.406-0.594l-5.359-5.344c-1.828 1.266-4.016 1.937-6.234 1.937-6.078 0-11-4.922-11-11s4.922-11 11-11 11 4.922 11 11c0 2.219-0.672 4.406-1.937 6.234l5.359 5.359c0.359 0.359 0.578 0.875 0.578 1.406z"></path>
</symbol>
<symbol id="icon-envelope-o" viewBox="0 0 28 28">
<title>envelope-o</title>
<path d="M26 23.5v-12c-0.328 0.375-0.688 0.719-1.078 1.031-2.234 1.719-4.484 3.469-6.656 5.281-1.172 0.984-2.625 2.188-4.25 2.188h-0.031c-1.625 0-3.078-1.203-4.25-2.188-2.172-1.813-4.422-3.563-6.656-5.281-0.391-0.313-0.75-0.656-1.078-1.031v12c0 0.266 0.234 0.5 0.5 0.5h23c0.266 0 0.5-0.234 0.5-0.5zM26 7.078c0-0.391 0.094-1.078-0.5-1.078h-23c-0.266 0-0.5 0.234-0.5 0.5 0 1.781 0.891 3.328 2.297 4.438 2.094 1.641 4.188 3.297 6.266 4.953 0.828 0.672 2.328 2.109 3.422 2.109h0.031c1.094 0 2.594-1.437 3.422-2.109 2.078-1.656 4.172-3.313 6.266-4.953 1.016-0.797 2.297-2.531 2.297-3.859zM28 6.5v17c0 1.375-1.125 2.5-2.5 2.5h-23c-1.375 0-2.5-1.125-2.5-2.5v-17c0-1.375 1.125-2.5 2.5-2.5h23c1.375 0 2.5 1.125 2.5 2.5z"></path>
</symbol>
<symbol id="icon-cog" viewBox="0 0 24 28">
<title>cog</title>
<path d="M16 14c0-2.203-1.797-4-4-4s-4 1.797-4 4 1.797 4 4 4 4-1.797 4-4zM24 12.297v3.469c0 0.234-0.187 0.516-0.438 0.562l-2.891 0.438c-0.172 0.5-0.359 0.969-0.609 1.422 0.531 0.766 1.094 1.453 1.672 2.156 0.094 0.109 0.156 0.25 0.156 0.391s-0.047 0.25-0.141 0.359c-0.375 0.5-2.484 2.797-3.016 2.797-0.141 0-0.281-0.063-0.406-0.141l-2.156-1.687c-0.453 0.234-0.938 0.438-1.422 0.594-0.109 0.953-0.203 1.969-0.453 2.906-0.063 0.25-0.281 0.438-0.562 0.438h-3.469c-0.281 0-0.531-0.203-0.562-0.469l-0.438-2.875c-0.484-0.156-0.953-0.344-1.406-0.578l-2.203 1.672c-0.109 0.094-0.25 0.141-0.391 0.141s-0.281-0.063-0.391-0.172c-0.828-0.75-1.922-1.719-2.578-2.625-0.078-0.109-0.109-0.234-0.109-0.359 0-0.141 0.047-0.25 0.125-0.359 0.531-0.719 1.109-1.406 1.641-2.141-0.266-0.5-0.484-1.016-0.641-1.547l-2.859-0.422c-0.266-0.047-0.453-0.297-0.453-0.562v-3.469c0-0.234 0.187-0.516 0.422-0.562l2.906-0.438c0.156-0.5 0.359-0.969 0.609-1.437-0.531-0.75-1.094-1.453-1.672-2.156-0.094-0.109-0.156-0.234-0.156-0.375s0.063-0.25 0.141-0.359c0.375-0.516 2.484-2.797 3.016-2.797 0.141 0 0.281 0.063 0.406 0.156l2.156 1.672c0.453-0.234 0.938-0.438 1.422-0.594 0.109-0.953 0.203-1.969 0.453-2.906 0.063-0.25 0.281-0.438 0.562-0.438h3.469c0.281 0 0.531 0.203 0.562 0.469l0.438 2.875c0.484 0.156 0.953 0.344 1.406 0.578l2.219-1.672c0.094-0.094 0.234-0.141 0.375-0.141s0.281 0.063 0.391 0.156c0.828 0.766 1.922 1.734 2.578 2.656 0.078 0.094 0.109 0.219 0.109 0.344 0 0.141-0.047 0.25-0.125 0.359-0.531 0.719-1.109 1.406-1.641 2.141 0.266 0.5 0.484 1.016 0.641 1.531l2.859 0.438c0.266 0.047 0.453 0.297 0.453 0.562z"></path>
</symbol>
<symbol id="icon-play-circle-o" viewBox="0 0 24 28">
<title>play-circle-o</title>
<path d="M18.5 14c0 0.359-0.187 0.688-0.5 0.859l-8.5 5c-0.156 0.094-0.328 0.141-0.5 0.141s-0.344-0.047-0.5-0.125c-0.313-0.187-0.5-0.516-0.5-0.875v-10c0-0.359 0.187-0.688 0.5-0.875 0.313-0.172 0.703-0.172 1 0.016l8.5 5c0.313 0.172 0.5 0.5 0.5 0.859zM20.5 14c0-4.688-3.813-8.5-8.5-8.5s-8.5 3.813-8.5 8.5 3.813 8.5 8.5 8.5 8.5-3.813 8.5-8.5zM24 14c0 6.625-5.375 12-12 12s-12-5.375-12-12 5.375-12 12-12 12 5.375 12 12z"></path>
</symbol>
<symbol id="icon-tag" viewBox="0 0 24 28">
<title>tag</title>
<path d="M7 7c0-1.109-0.891-2-2-2s-2 0.891-2 2 0.891 2 2 2 2-0.891 2-2zM23.672 16c0 0.531-0.219 1.047-0.578 1.406l-7.672 7.688c-0.375 0.359-0.891 0.578-1.422 0.578s-1.047-0.219-1.406-0.578l-11.172-11.188c-0.797-0.781-1.422-2.297-1.422-3.406v-6.5c0-1.094 0.906-2 2-2h6.5c1.109 0 2.625 0.625 3.422 1.422l11.172 11.156c0.359 0.375 0.578 0.891 0.578 1.422z"></path>
</symbol>
<symbol id="icon-map-marker" viewBox="0 0 16 28">
<title>map-marker</title>
<path d="M12 10c0-2.203-1.797-4-4-4s-4 1.797-4 4 1.797 4 4 4 4-1.797 4-4zM16 10c0 0.953-0.109 1.937-0.516 2.797l-5.688 12.094c-0.328 0.688-1.047 1.109-1.797 1.109s-1.469-0.422-1.781-1.109l-5.703-12.094c-0.406-0.859-0.516-1.844-0.516-2.797 0-4.422 3.578-8 8-8s8 3.578 8 8z"></path>
</symbol>
<symbol id="icon-play" viewBox="0 0 22 28">
<title>play</title>
<path d="M21.625 14.484l-20.75 11.531c-0.484 0.266-0.875 0.031-0.875-0.516v-23c0-0.547 0.391-0.781 0.875-0.516l20.75 11.531c0.484 0.266 0.484 0.703 0 0.969z"></path>
</symbol>
<symbol id="icon-chevron-left" viewBox="0 0 21 28">
<title>chevron-left</title>
<path d="M18.297 4.703l-8.297 8.297 8.297 8.297c0.391 0.391 0.391 1.016 0 1.406l-2.594 2.594c-0.391 0.391-1.016 0.391-1.406 0l-11.594-11.594c-0.391-0.391-0.391-1.016 0-1.406l11.594-11.594c0.391-0.391 1.016-0.391 1.406 0l2.594 2.594c0.391 0.391 0.391 1.016 0 1.406z"></path>
</symbol>
<symbol id="icon-chevron-right" viewBox="0 0 19 28">
<title>chevron-right</title>
<path d="M17.297 13.703l-11.594 11.594c-0.391 0.391-1.016 0.391-1.406 0l-2.594-2.594c-0.391-0.391-0.391-1.016 0-1.406l8.297-8.297-8.297-8.297c-0.391-0.391-0.391-1.016 0-1.406l2.594-2.594c0.391-0.391 1.016-0.391 1.406 0l11.594 11.594c0.391 0.391 0.391 1.016 0 1.406z"></path>
</symbol>
<symbol id="icon-plus-circle" viewBox="0 0 24 28">
<title>plus-circle</title>
<path d="M19 15v-2c0-0.547-0.453-1-1-1h-4v-4c0-0.547-0.453-1-1-1h-2c-0.547 0-1 0.453-1 1v4h-4c-0.547 0-1 0.453-1 1v2c0 0.547 0.453 1 1 1h4v4c0 0.547 0.453 1 1 1h2c0.547 0 1-0.453 1-1v-4h4c0.547 0 1-0.453 1-1zM24 14c0 6.625-5.375 12-12 12s-12-5.375-12-12 5.375-12 12-12 12 5.375 12 12z"></path>
</symbol>
<symbol id="icon-minus-circle" viewBox="0 0 24 28">
<title>minus-circle</title>
<path d="M19 15v-2c0-0.547-0.453-1-1-1h-12c-0.547 0-1 0.453-1 1v2c0 0.547 0.453 1 1 1h12c0.547 0 1-0.453 1-1zM24 14c0 6.625-5.375 12-12 12s-12-5.375-12-12 5.375-12 12-12 12 5.375 12 12z"></path>
</symbol>
<symbol id="icon-times-circle" viewBox="0 0 24 28">
<title>times-circle</title>
<path d="M17.953 17.531c0-0.266-0.109-0.516-0.297-0.703l-2.828-2.828 2.828-2.828c0.187-0.187 0.297-0.438 0.297-0.703s-0.109-0.531-0.297-0.719l-1.406-1.406c-0.187-0.187-0.453-0.297-0.719-0.297s-0.516 0.109-0.703 0.297l-2.828 2.828-2.828-2.828c-0.187-0.187-0.438-0.297-0.703-0.297s-0.531 0.109-0.719 0.297l-1.406 1.406c-0.187 0.187-0.297 0.453-0.297 0.719s0.109 0.516 0.297 0.703l2.828 2.828-2.828 2.828c-0.187 0.187-0.297 0.438-0.297 0.703s0.109 0.531 0.297 0.719l1.406 1.406c0.187 0.187 0.453 0.297 0.719 0.297s0.516-0.109 0.703-0.297l2.828-2.828 2.828 2.828c0.187 0.187 0.438 0.297 0.703 0.297s0.531-0.109 0.719-0.297l1.406-1.406c0.187-0.187 0.297-0.453 0.297-0.719zM24 14c0 6.625-5.375 12-12 12s-12-5.375-12-12 5.375-12 12-12 12 5.375 12 12z"></path>
</symbol>
<symbol id="icon-check-circle" viewBox="0 0 24 28">
<title>check-circle</title>
<path d="M20.062 11.469c0-0.266-0.094-0.531-0.281-0.719l-1.422-1.406c-0.187-0.187-0.438-0.297-0.703-0.297s-0.516 0.109-0.703 0.297l-6.375 6.359-3.531-3.531c-0.187-0.187-0.438-0.297-0.703-0.297s-0.516 0.109-0.703 0.297l-1.422 1.406c-0.187 0.187-0.281 0.453-0.281 0.719s0.094 0.516 0.281 0.703l5.656 5.656c0.187 0.187 0.453 0.297 0.703 0.297 0.266 0 0.531-0.109 0.719-0.297l8.484-8.484c0.187-0.187 0.281-0.438 0.281-0.703zM24 14c0 6.625-5.375 12-12 12s-12-5.375-12-12 5.375-12 12-12 12 5.375 12 12z"></path>
</symbol>
<symbol id="icon-question-circle" viewBox="0 0 24 28">
<title>question-circle</title>
<path d="M14 21.5v-3c0-0.281-0.219-0.5-0.5-0.5h-3c-0.281 0-0.5 0.219-0.5 0.5v3c0 0.281 0.219 0.5 0.5 0.5h3c0.281 0 0.5-0.219 0.5-0.5zM18 11c0-2.859-3-5-5.688-5-2.547 0-4.453 1.094-5.797 3.328-0.141 0.219-0.078 0.5 0.125 0.656l2.063 1.563c0.078 0.063 0.187 0.094 0.297 0.094 0.141 0 0.297-0.063 0.391-0.187 0.734-0.938 1.047-1.219 1.344-1.437 0.266-0.187 0.781-0.375 1.344-0.375 1 0 1.922 0.641 1.922 1.328 0 0.812-0.422 1.219-1.375 1.656-1.109 0.5-2.625 1.797-2.625 3.313v0.562c0 0.281 0.219 0.5 0.5 0.5h3c0.281 0 0.5-0.219 0.5-0.5v0c0-0.359 0.453-1.125 1.188-1.547 1.188-0.672 2.812-1.578 2.812-3.953zM24 14c0 6.625-5.375 12-12 12s-12-5.375-12-12 5.375-12 12-12 12 5.375 12 12z"></path>
</symbol>
<symbol id="icon-info-circle" viewBox="0 0 24 28">
<title>info-circle</title>
<path d="M16 21.5v-2.5c0-0.281-0.219-0.5-0.5-0.5h-1.5v-8c0-0.281-0.219-0.5-0.5-0.5h-5c-0.281 0-0.5 0.219-0.5 0.5v2.5c0 0.281 0.219 0.5 0.5 0.5h1.5v5h-1.5c-0.281 0-0.5 0.219-0.5 0.5v2.5c0 0.281 0.219 0.5 0.5 0.5h7c0.281 0 0.5-0.219 0.5-0.5zM14 7.5v-2.5c0-0.281-0.219-0.5-0.5-0.5h-3c-0.281 0-0.5 0.219-0.5 0.5v2.5c0 0.281 0.219 0.5 0.5 0.5h3c0.281 0 0.5-0.219 0.5-0.5zM24 14c0 6.625-5.375 12-12 12s-12-5.375-12-12 5.375-12 12-12 12 5.375 12 12z"></path>
</symbol>
<symbol id="icon-times-circle-o" viewBox="0 0 24 28">
<title>times-circle-o</title>
<path d="M17.141 16.859l-2.281 2.281c-0.203 0.203-0.516 0.203-0.719 0l-2.141-2.141-2.141 2.141c-0.203 0.203-0.516 0.203-0.719 0l-2.281-2.281c-0.203-0.203-0.203-0.516 0-0.719l2.141-2.141-2.141-2.141c-0.203-0.203-0.203-0.516 0-0.719l2.281-2.281c0.203-0.203 0.516-0.203 0.719 0l2.141 2.141 2.141-2.141c0.203-0.203 0.516-0.203 0.719 0l2.281 2.281c0.203 0.203 0.203 0.516 0 0.719l-2.141 2.141 2.141 2.141c0.203 0.203 0.203 0.516 0 0.719zM20.5 14c0-4.688-3.813-8.5-8.5-8.5s-8.5 3.813-8.5 8.5 3.813 8.5 8.5 8.5 8.5-3.813 8.5-8.5zM24 14c0 6.625-5.375 12-12 12s-12-5.375-12-12 5.375-12 12-12 12 5.375 12 12z"></path>
</symbol>
<symbol id="icon-check-circle-o" viewBox="0 0 24 28">
<title>check-circle-o</title>
<path d="M18.297 12.703l-6.594 6.594c-0.391 0.391-1.016 0.391-1.406 0l-4.594-4.594c-0.391-0.391-0.391-1.016 0-1.406l1.594-1.594c0.391-0.391 1.016-0.391 1.406 0l2.297 2.297 4.297-4.297c0.391-0.391 1.016-0.391 1.406 0l1.594 1.594c0.391 0.391 0.391 1.016 0 1.406zM20.5 14c0-4.688-3.813-8.5-8.5-8.5s-8.5 3.813-8.5 8.5 3.813 8.5 8.5 8.5 8.5-3.813 8.5-8.5zM24 14c0 6.625-5.375 12-12 12s-12-5.375-12-12 5.375-12 12-12 12 5.375 12 12z"></path>
</symbol>
<symbol id="icon-ban" viewBox="0 0 24 28">
<title>ban</title>
<path d="M20.5 13.953c0-1.703-0.5-3.281-1.359-4.609l-11.781 11.766c1.344 0.875 2.938 1.391 4.641 1.391 4.688 0 8.5-3.828 8.5-8.547zM4.891 18.625l11.797-11.781c-1.344-0.906-2.953-1.422-4.688-1.422-4.688 0-8.5 3.828-8.5 8.531 0 1.734 0.516 3.328 1.391 4.672zM24 13.953c0 6.656-5.375 12.047-12 12.047s-12-5.391-12-12.047c0-6.641 5.375-12.031 12-12.031s12 5.391 12 12.031z"></path>
</symbol>
<symbol id="icon-arrow-left" viewBox="0 0 25 28">
<title>arrow-left</title>
<path d="M24 14v2c0 1.062-0.703 2-1.828 2h-11l4.578 4.594c0.375 0.359 0.594 0.875 0.594 1.406s-0.219 1.047-0.594 1.406l-1.172 1.188c-0.359 0.359-0.875 0.578-1.406 0.578s-1.047-0.219-1.422-0.578l-10.172-10.187c-0.359-0.359-0.578-0.875-0.578-1.406s0.219-1.047 0.578-1.422l10.172-10.156c0.375-0.375 0.891-0.594 1.422-0.594s1.031 0.219 1.406 0.594l1.172 1.156c0.375 0.375 0.594 0.891 0.594 1.422s-0.219 1.047-0.594 1.422l-4.578 4.578h11c1.125 0 1.828 0.938 1.828 2z"></path>
</symbol>
<symbol id="icon-arrow-right" viewBox="0 0 23 28">
<title>arrow-right</title>
<path d="M23 15c0 0.531-0.203 1.047-0.578 1.422l-10.172 10.172c-0.375 0.359-0.891 0.578-1.422 0.578s-1.031-0.219-1.406-0.578l-1.172-1.172c-0.375-0.375-0.594-0.891-0.594-1.422s0.219-1.047 0.594-1.422l4.578-4.578h-11c-1.125 0-1.828-0.938-1.828-2v-2c0-1.062 0.703-2 1.828-2h11l-4.578-4.594c-0.375-0.359-0.594-0.875-0.594-1.406s0.219-1.047 0.594-1.406l1.172-1.172c0.375-0.375 0.875-0.594 1.406-0.594s1.047 0.219 1.422 0.594l10.172 10.172c0.375 0.359 0.578 0.875 0.578 1.406z"></path>
</symbol>
<symbol id="icon-arrow-up" viewBox="0 0 26 28">
<title>arrow-up</title>
<path d="M25.172 15.172c0 0.531-0.219 1.031-0.578 1.406l-1.172 1.172c-0.375 0.375-0.891 0.594-1.422 0.594s-1.047-0.219-1.406-0.594l-4.594-4.578v11c0 1.125-0.938 1.828-2 1.828h-2c-1.062 0-2-0.703-2-1.828v-11l-4.594 4.578c-0.359 0.375-0.875 0.594-1.406 0.594s-1.047-0.219-1.406-0.594l-1.172-1.172c-0.375-0.375-0.594-0.875-0.594-1.406s0.219-1.047 0.594-1.422l10.172-10.172c0.359-0.375 0.875-0.578 1.406-0.578s1.047 0.203 1.422 0.578l10.172 10.172c0.359 0.375 0.578 0.891 0.578 1.422z"></path>
</symbol>
<symbol id="icon-arrow-down" viewBox="0 0 26 28">
<title>arrow-down</title>
<path d="M25.172 13c0 0.531-0.219 1.047-0.578 1.406l-10.172 10.187c-0.375 0.359-0.891 0.578-1.422 0.578s-1.047-0.219-1.406-0.578l-10.172-10.187c-0.375-0.359-0.594-0.875-0.594-1.406s0.219-1.047 0.594-1.422l1.156-1.172c0.375-0.359 0.891-0.578 1.422-0.578s1.047 0.219 1.406 0.578l4.594 4.594v-11c0-1.094 0.906-2 2-2h2c1.094 0 2 0.906 2 2v11l4.594-4.594c0.359-0.359 0.875-0.578 1.406-0.578s1.047 0.219 1.422 0.578l1.172 1.172c0.359 0.375 0.578 0.891 0.578 1.422z"></path>
</symbol>
<symbol id="icon-exclamation-circle" viewBox="0 0 24 28">
<title>exclamation-circle</title>
<path d="M12 2c6.625 0 12 5.375 12 12s-5.375 12-12 12-12-5.375-12-12 5.375-12 12-12zM14 21.484v-2.969c0-0.281-0.219-0.516-0.484-0.516h-3c-0.281 0-0.516 0.234-0.516 0.516v2.969c0 0.281 0.234 0.516 0.516 0.516h3c0.266 0 0.484-0.234 0.484-0.516zM13.969 16.109l0.281-9.703c0-0.109-0.047-0.219-0.156-0.281-0.094-0.078-0.234-0.125-0.375-0.125h-3.437c-0.141 0-0.281 0.047-0.375 0.125-0.109 0.063-0.156 0.172-0.156 0.281l0.266 9.703c0 0.219 0.234 0.391 0.531 0.391h2.891c0.281 0 0.516-0.172 0.531-0.391z"></path>
</symbol>
<symbol id="icon-exclamation-triangle" viewBox="0 0 28 28">
<title>exclamation-triangle</title>
<path d="M16 21.484v-2.969c0-0.281-0.219-0.516-0.5-0.516h-3c-0.281 0-0.5 0.234-0.5 0.516v2.969c0 0.281 0.219 0.516 0.5 0.516h3c0.281 0 0.5-0.234 0.5-0.516zM15.969 15.641l0.281-7.172c0-0.094-0.047-0.219-0.156-0.297-0.094-0.078-0.234-0.172-0.375-0.172h-3.437c-0.141 0-0.281 0.094-0.375 0.172-0.109 0.078-0.156 0.234-0.156 0.328l0.266 7.141c0 0.203 0.234 0.359 0.531 0.359h2.891c0.281 0 0.516-0.156 0.531-0.359zM15.75 1.047l12 22c0.344 0.609 0.328 1.359-0.031 1.969s-1.016 0.984-1.719 0.984h-24c-0.703 0-1.359-0.375-1.719-0.984s-0.375-1.359-0.031-1.969l12-22c0.344-0.641 1.016-1.047 1.75-1.047s1.406 0.406 1.75 1.047z"></path>
</symbol>
<symbol id="icon-calendar" viewBox="0 0 26 28">
<title>calendar</title>
<path d="M2 26h4.5v-4.5h-4.5v4.5zM7.5 26h5v-4.5h-5v4.5zM2 20.5h4.5v-5h-4.5v5zM7.5 20.5h5v-5h-5v5zM2 14.5h4.5v-4.5h-4.5v4.5zM13.5 26h5v-4.5h-5v4.5zM7.5 14.5h5v-4.5h-5v4.5zM19.5 26h4.5v-4.5h-4.5v4.5zM13.5 20.5h5v-5h-5v5zM8 7v-4.5c0-0.266-0.234-0.5-0.5-0.5h-1c-0.266 0-0.5 0.234-0.5 0.5v4.5c0 0.266 0.234 0.5 0.5 0.5h1c0.266 0 0.5-0.234 0.5-0.5zM19.5 20.5h4.5v-5h-4.5v5zM13.5 14.5h5v-4.5h-5v4.5zM19.5 14.5h4.5v-4.5h-4.5v4.5zM20 7v-4.5c0-0.266-0.234-0.5-0.5-0.5h-1c-0.266 0-0.5 0.234-0.5 0.5v4.5c0 0.266 0.234 0.5 0.5 0.5h1c0.266 0 0.5-0.234 0.5-0.5zM26 6v20c0 1.094-0.906 2-2 2h-22c-1.094 0-2-0.906-2-2v-20c0-1.094 0.906-2 2-2h2v-1.5c0-1.375 1.125-2.5 2.5-2.5h1c1.375 0 2.5 1.125 2.5 2.5v1.5h6v-1.5c0-1.375 1.125-2.5 2.5-2.5h1c1.375 0 2.5 1.125 2.5 2.5v1.5h2c1.094 0 2 0.906 2 2z"></path>
</symbol>
<symbol id="icon-chevron-up" viewBox="0 0 28 28">
<title>chevron-up</title>
<path d="M26.297 20.797l-2.594 2.578c-0.391 0.391-1.016 0.391-1.406 0l-8.297-8.297-8.297 8.297c-0.391 0.391-1.016 0.391-1.406 0l-2.594-2.578c-0.391-0.391-0.391-1.031 0-1.422l11.594-11.578c0.391-0.391 1.016-0.391 1.406 0l11.594 11.578c0.391 0.391 0.391 1.031 0 1.422z"></path>
</symbol>
<symbol id="icon-chevron-down" viewBox="0 0 28 28">
<title>chevron-down</title>
<path d="M26.297 12.625l-11.594 11.578c-0.391 0.391-1.016 0.391-1.406 0l-11.594-11.578c-0.391-0.391-0.391-1.031 0-1.422l2.594-2.578c0.391-0.391 1.016-0.391 1.406 0l8.297 8.297 8.297-8.297c0.391-0.391 1.016-0.391 1.406 0l2.594 2.578c0.391 0.391 0.391 1.031 0 1.422z"></path>
</symbol>
<symbol id="icon-shopping-cart" viewBox="0 0 26 28">
<title>shopping-cart</title>
<path d="M10 24c0 1.094-0.906 2-2 2s-2-0.906-2-2 0.906-2 2-2 2 0.906 2 2zM24 24c0 1.094-0.906 2-2 2s-2-0.906-2-2 0.906-2 2-2 2 0.906 2 2zM26 7v8c0 0.5-0.391 0.938-0.891 1l-16.312 1.906c0.078 0.359 0.203 0.719 0.203 1.094 0 0.359-0.219 0.688-0.375 1h14.375c0.547 0 1 0.453 1 1s-0.453 1-1 1h-16c-0.547 0-1-0.453-1-1 0-0.484 0.703-1.656 0.953-2.141l-2.766-12.859h-3.187c-0.547 0-1-0.453-1-1s0.453-1 1-1h4c1.047 0 1.078 1.25 1.234 2h18.766c0.547 0 1 0.453 1 1z"></path>
</symbol>
<symbol id="icon-twitter-square" viewBox="0 0 24 28">
<title>twitter-square</title>
<path d="M20 9.531c-0.594 0.266-1.219 0.438-1.891 0.531 0.688-0.406 1.203-1.062 1.453-1.828-0.641 0.375-1.344 0.656-2.094 0.797-0.594-0.641-1.453-1.031-2.391-1.031-1.813 0-3.281 1.469-3.281 3.281 0 0.25 0.016 0.516 0.078 0.75-2.734-0.141-5.156-1.437-6.781-3.437-0.281 0.484-0.453 1.062-0.453 1.656 0 1.141 0.531 2.141 1.422 2.734-0.547-0.016-1.062-0.172-1.563-0.406v0.031c0 1.594 1.203 2.922 2.703 3.219-0.281 0.078-0.5 0.125-0.797 0.125-0.203 0-0.406-0.031-0.609-0.063 0.422 1.297 1.625 2.25 3.063 2.281-1.125 0.875-2.531 1.406-4.078 1.406-0.266 0-0.531-0.016-0.781-0.047 1.453 0.922 3.172 1.469 5.031 1.469 6.031 0 9.344-5 9.344-9.344 0-0.141 0-0.281-0.016-0.422 0.641-0.453 1.203-1.031 1.641-1.703zM24 6.5v15c0 2.484-2.016 4.5-4.5 4.5h-15c-2.484 0-4.5-2.016-4.5-4.5v-15c0-2.484 2.016-4.5 4.5-4.5h15c2.484 0 4.5 2.016 4.5 4.5z"></path>
</symbol>
<symbol id="icon-facebook-square" viewBox="0 0 24 28">
<title>facebook-square</title>
<path d="M19.5 2c2.484 0 4.5 2.016 4.5 4.5v15c0 2.484-2.016 4.5-4.5 4.5h-2.938v-9.297h3.109l0.469-3.625h-3.578v-2.312c0-1.047 0.281-1.75 1.797-1.75l1.906-0.016v-3.234c-0.328-0.047-1.469-0.141-2.781-0.141-2.766 0-4.672 1.687-4.672 4.781v2.672h-3.125v3.625h3.125v9.297h-8.313c-2.484 0-4.5-2.016-4.5-4.5v-15c0-2.484 2.016-4.5 4.5-4.5h15z"></path>
</symbol>
<symbol id="icon-cogs" viewBox="0 0 30 28">
<title>cogs</title>
<path d="M14 14c0-2.203-1.797-4-4-4s-4 1.797-4 4 1.797 4 4 4 4-1.797 4-4zM26 22c0-1.094-0.906-2-2-2s-2 0.906-2 2c0 1.109 0.906 2 2 2 1.109 0 2-0.906 2-2zM26 6c0-1.094-0.906-2-2-2s-2 0.906-2 2c0 1.109 0.906 2 2 2 1.109 0 2-0.906 2-2zM20 12.578v2.891c0 0.203-0.156 0.438-0.359 0.469l-2.422 0.375c-0.125 0.406-0.297 0.797-0.5 1.188 0.438 0.625 0.906 1.203 1.406 1.797 0.063 0.094 0.109 0.187 0.109 0.313 0 0.109-0.031 0.219-0.109 0.297-0.313 0.422-2.063 2.328-2.516 2.328-0.125 0-0.234-0.047-0.328-0.109l-1.797-1.406c-0.391 0.203-0.781 0.359-1.203 0.484-0.078 0.797-0.156 1.656-0.359 2.422-0.063 0.219-0.25 0.375-0.469 0.375h-2.906c-0.219 0-0.438-0.172-0.469-0.391l-0.359-2.391c-0.406-0.125-0.797-0.297-1.172-0.484l-1.844 1.391c-0.078 0.078-0.203 0.109-0.313 0.109-0.125 0-0.234-0.047-0.328-0.125-0.406-0.375-2.25-2.047-2.25-2.5 0-0.109 0.047-0.203 0.109-0.297 0.453-0.594 0.922-1.172 1.375-1.781-0.219-0.422-0.406-0.844-0.547-1.281l-2.375-0.375c-0.219-0.031-0.375-0.234-0.375-0.453v-2.891c0-0.203 0.156-0.438 0.359-0.469l2.422-0.375c0.125-0.406 0.297-0.797 0.5-1.188-0.438-0.625-0.906-1.203-1.406-1.797-0.063-0.094-0.109-0.203-0.109-0.313s0.031-0.219 0.109-0.313c0.313-0.422 2.063-2.312 2.516-2.312 0.125 0 0.234 0.047 0.328 0.109l1.797 1.406c0.391-0.203 0.781-0.359 1.203-0.5 0.078-0.781 0.156-1.641 0.359-2.406 0.063-0.219 0.25-0.375 0.469-0.375h2.906c0.219 0 0.438 0.172 0.469 0.391l0.359 2.391c0.406 0.125 0.797 0.297 1.172 0.484l1.844-1.391c0.094-0.078 0.203-0.109 0.313-0.109 0.125 0 0.234 0.047 0.328 0.125 0.406 0.375 2.25 2.063 2.25 2.5 0 0.109-0.047 0.203-0.109 0.297-0.453 0.609-0.922 1.172-1.359 1.781 0.203 0.422 0.391 0.844 0.531 1.281l2.375 0.359c0.219 0.047 0.375 0.25 0.375 0.469zM30 20.906v2.188c0 0.234-2.016 0.453-2.328 0.484-0.125 0.297-0.281 0.562-0.469 0.812 0.141 0.313 0.797 1.875 0.797 2.156 0 0.047-0.016 0.078-0.063 0.109-0.187 0.109-1.859 1.109-1.937 1.109-0.203 0-1.375-1.563-1.531-1.797-0.156 0.016-0.313 0.031-0.469 0.031s-0.313-0.016-0.469-0.031c-0.156 0.234-1.328 1.797-1.531 1.797-0.078 0-1.75-1-1.937-1.109-0.047-0.031-0.063-0.078-0.063-0.109 0-0.266 0.656-1.844 0.797-2.156-0.187-0.25-0.344-0.516-0.469-0.812-0.313-0.031-2.328-0.25-2.328-0.484v-2.188c0-0.234 2.016-0.453 2.328-0.484 0.125-0.281 0.281-0.562 0.469-0.812-0.141-0.313-0.797-1.891-0.797-2.156 0-0.031 0.016-0.078 0.063-0.109 0.187-0.094 1.859-1.094 1.937-1.094 0.203 0 1.375 1.547 1.531 1.781 0.156-0.016 0.313-0.031 0.469-0.031s0.313 0.016 0.469 0.031c0.438-0.609 0.906-1.219 1.437-1.75l0.094-0.031c0.078 0 1.75 0.984 1.937 1.094 0.047 0.031 0.063 0.078 0.063 0.109 0 0.281-0.656 1.844-0.797 2.156 0.187 0.25 0.344 0.531 0.469 0.812 0.313 0.031 2.328 0.25 2.328 0.484zM30 4.906v2.187c0 0.234-2.016 0.453-2.328 0.484-0.125 0.297-0.281 0.562-0.469 0.812 0.141 0.313 0.797 1.875 0.797 2.156 0 0.047-0.016 0.078-0.063 0.109-0.187 0.109-1.859 1.109-1.937 1.109-0.203 0-1.375-1.563-1.531-1.797-0.156 0.016-0.313 0.031-0.469 0.031s-0.313-0.016-0.469-0.031c-0.156 0.234-1.328 1.797-1.531 1.797-0.078 0-1.75-1-1.937-1.109-0.047-0.031-0.063-0.078-0.063-0.109 0-0.266 0.656-1.844 0.797-2.156-0.187-0.25-0.344-0.516-0.469-0.812-0.313-0.031-2.328-0.25-2.328-0.484v-2.188c0-0.234 2.016-0.453 2.328-0.484 0.125-0.281 0.281-0.562 0.469-0.812-0.141-0.313-0.797-1.891-0.797-2.156 0-0.031 0.016-0.078 0.063-0.109 0.187-0.094 1.859-1.094 1.937-1.094 0.203 0 1.375 1.547 1.531 1.781 0.156-0.016 0.313-0.031 0.469-0.031s0.313 0.016 0.469 0.031c0.438-0.609 0.906-1.219 1.437-1.75l0.094-0.031c0.078 0 1.75 0.984 1.937 1.094 0.047 0.031 0.063 0.078 0.063 0.109 0 0.281-0.656 1.844-0.797 2.156 0.187 0.25 0.344 0.531 0.469 0.812 0.313 0.031 2.328 0.25 2.328 0.484z"></path>
</symbol>
<symbol id="icon-comments" viewBox="0 0 28 28">
<title>comments</title>
<path d="M22 12c0 4.422-4.922 8-11 8-0.953 0-1.875-0.094-2.75-0.25-1.297 0.922-2.766 1.594-4.344 2-0.422 0.109-0.875 0.187-1.344 0.25h-0.047c-0.234 0-0.453-0.187-0.5-0.453v0c-0.063-0.297 0.141-0.484 0.313-0.688 0.609-0.688 1.297-1.297 1.828-2.594-2.531-1.469-4.156-3.734-4.156-6.266 0-4.422 4.922-8 11-8s11 3.578 11 8zM28 16c0 2.547-1.625 4.797-4.156 6.266 0.531 1.297 1.219 1.906 1.828 2.594 0.172 0.203 0.375 0.391 0.313 0.688v0c-0.063 0.281-0.297 0.484-0.547 0.453-0.469-0.063-0.922-0.141-1.344-0.25-1.578-0.406-3.047-1.078-4.344-2-0.875 0.156-1.797 0.25-2.75 0.25-2.828 0-5.422-0.781-7.375-2.063 0.453 0.031 0.922 0.063 1.375 0.063 3.359 0 6.531-0.969 8.953-2.719 2.609-1.906 4.047-4.484 4.047-7.281 0-0.812-0.125-1.609-0.359-2.375 2.641 1.453 4.359 3.766 4.359 6.375z"></path>
</symbol>
<symbol id="icon-linkedin-square" viewBox="0 0 24 28">
<title>linkedin-square</title>
<path d="M3.703 22.094h3.609v-10.844h-3.609v10.844zM7.547 7.906c-0.016-1.062-0.781-1.875-2.016-1.875s-2.047 0.812-2.047 1.875c0 1.031 0.781 1.875 2 1.875h0.016c1.266 0 2.047-0.844 2.047-1.875zM16.688 22.094h3.609v-6.219c0-3.328-1.781-4.875-4.156-4.875-1.937 0-2.797 1.078-3.266 1.828h0.031v-1.578h-3.609s0.047 1.016 0 10.844v0h3.609v-6.062c0-0.313 0.016-0.641 0.109-0.875 0.266-0.641 0.859-1.313 1.859-1.313 1.297 0 1.813 0.984 1.813 2.453v5.797zM24 6.5v15c0 2.484-2.016 4.5-4.5 4.5h-15c-2.484 0-4.5-2.016-4.5-4.5v-15c0-2.484 2.016-4.5 4.5-4.5h15c2.484 0 4.5 2.016 4.5 4.5z"></path>
</symbol>
<symbol id="icon-thumb-tack" viewBox="0 0 18 28">
<title>thumb-tack</title>
<path d="M7.5 13.5v-7c0-0.281-0.219-0.5-0.5-0.5s-0.5 0.219-0.5 0.5v7c0 0.281 0.219 0.5 0.5 0.5s0.5-0.219 0.5-0.5zM18 19c0 0.547-0.453 1-1 1h-6.703l-0.797 7.547c-0.031 0.25-0.234 0.453-0.484 0.453h-0.016c-0.25 0-0.453-0.172-0.5-0.422l-1.188-7.578h-6.312c-0.547 0-1-0.453-1-1 0-2.562 1.937-5 4-5v-8c-1.094 0-2-0.906-2-2s0.906-2 2-2h10c1.094 0 2 0.906 2 2s-0.906 2-2 2v8c2.063 0 4 2.438 4 5z"></path>
</symbol>
<symbol id="icon-external-link" viewBox="0 0 28 28">
<title>external-link</title>
<path d="M22 14.5v5c0 2.484-2.016 4.5-4.5 4.5h-13c-2.484 0-4.5-2.016-4.5-4.5v-13c0-2.484 2.016-4.5 4.5-4.5h11c0.281 0 0.5 0.219 0.5 0.5v1c0 0.281-0.219 0.5-0.5 0.5h-11c-1.375 0-2.5 1.125-2.5 2.5v13c0 1.375 1.125 2.5 2.5 2.5h13c1.375 0 2.5-1.125 2.5-2.5v-5c0-0.281 0.219-0.5 0.5-0.5h1c0.281 0 0.5 0.219 0.5 0.5zM28 1v8c0 0.547-0.453 1-1 1-0.266 0-0.516-0.109-0.703-0.297l-2.75-2.75-10.187 10.187c-0.094 0.094-0.234 0.156-0.359 0.156s-0.266-0.063-0.359-0.156l-1.781-1.781c-0.094-0.094-0.156-0.234-0.156-0.359s0.063-0.266 0.156-0.359l10.187-10.187-2.75-2.75c-0.187-0.187-0.297-0.438-0.297-0.703 0-0.547 0.453-1 1-1h8c0.547 0 1 0.453 1 1z"></path>
</symbol>
<symbol id="icon-phone" viewBox="0 0 22 28">
<title>phone</title>
<path d="M22 19.375c0 0.562-0.25 1.656-0.484 2.172-0.328 0.766-1.203 1.266-1.906 1.656-0.922 0.5-1.859 0.797-2.906 0.797-1.453 0-2.766-0.594-4.094-1.078-0.953-0.344-1.875-0.766-2.734-1.297-2.656-1.641-5.859-4.844-7.5-7.5-0.531-0.859-0.953-1.781-1.297-2.734-0.484-1.328-1.078-2.641-1.078-4.094 0-1.047 0.297-1.984 0.797-2.906 0.391-0.703 0.891-1.578 1.656-1.906 0.516-0.234 1.609-0.484 2.172-0.484 0.109 0 0.219 0 0.328 0.047 0.328 0.109 0.672 0.875 0.828 1.188 0.5 0.891 0.984 1.797 1.5 2.672 0.25 0.406 0.719 0.906 0.719 1.391 0 0.953-2.828 2.344-2.828 3.187 0 0.422 0.391 0.969 0.609 1.344 1.578 2.844 3.547 4.813 6.391 6.391 0.375 0.219 0.922 0.609 1.344 0.609 0.844 0 2.234-2.828 3.187-2.828 0.484 0 0.984 0.469 1.391 0.719 0.875 0.516 1.781 1 2.672 1.5 0.313 0.156 1.078 0.5 1.188 0.828 0.047 0.109 0.047 0.219 0.047 0.328z"></path>
</symbol>
<symbol id="icon-phone-square" viewBox="0 0 24 28">
<title>phone-square</title>
<path d="M20 18.641c0-0.078 0-0.172-0.031-0.25-0.094-0.281-2.375-1.437-2.812-1.687-0.297-0.172-0.656-0.516-1.016-0.516-0.688 0-1.703 2.047-2.312 2.047-0.313 0-0.703-0.281-0.984-0.438-2.063-1.156-3.484-2.578-4.641-4.641-0.156-0.281-0.438-0.672-0.438-0.984 0-0.609 2.047-1.625 2.047-2.312 0-0.359-0.344-0.719-0.516-1.016-0.25-0.438-1.406-2.719-1.687-2.812-0.078-0.031-0.172-0.031-0.25-0.031-0.406 0-1.203 0.187-1.578 0.344-1.031 0.469-1.781 2.438-1.781 3.516 0 1.047 0.422 2 0.781 2.969 1.25 3.422 4.969 7.141 8.391 8.391 0.969 0.359 1.922 0.781 2.969 0.781 1.078 0 3.047-0.75 3.516-1.781 0.156-0.375 0.344-1.172 0.344-1.578zM24 6.5v15c0 2.484-2.016 4.5-4.5 4.5h-15c-2.484 0-4.5-2.016-4.5-4.5v-15c0-2.484 2.016-4.5 4.5-4.5h15c2.484 0 4.5 2.016 4.5 4.5z"></path>
</symbol>
<symbol id="icon-twitter" viewBox="0 0 26 28">
<title>twitter</title>
<path d="M25.312 6.375c-0.688 1-1.547 1.891-2.531 2.609 0.016 0.219 0.016 0.438 0.016 0.656 0 6.672-5.078 14.359-14.359 14.359-2.859 0-5.516-0.828-7.75-2.266 0.406 0.047 0.797 0.063 1.219 0.063 2.359 0 4.531-0.797 6.266-2.156-2.219-0.047-4.078-1.5-4.719-3.5 0.313 0.047 0.625 0.078 0.953 0.078 0.453 0 0.906-0.063 1.328-0.172-2.312-0.469-4.047-2.5-4.047-4.953v-0.063c0.672 0.375 1.453 0.609 2.281 0.641-1.359-0.906-2.25-2.453-2.25-4.203 0-0.938 0.25-1.797 0.688-2.547 2.484 3.062 6.219 5.063 10.406 5.281-0.078-0.375-0.125-0.766-0.125-1.156 0-2.781 2.25-5.047 5.047-5.047 1.453 0 2.766 0.609 3.687 1.594 1.141-0.219 2.234-0.641 3.203-1.219-0.375 1.172-1.172 2.156-2.219 2.781 1.016-0.109 2-0.391 2.906-0.781z"></path>
</symbol>
<symbol id="icon-facebook" viewBox="0 0 16 28">
<title>facebook</title>
<path d="M14.984 0.187v4.125h-2.453c-1.922 0-2.281 0.922-2.281 2.25v2.953h4.578l-0.609 4.625h-3.969v11.859h-4.781v-11.859h-3.984v-4.625h3.984v-3.406c0-3.953 2.422-6.109 5.953-6.109 1.687 0 3.141 0.125 3.563 0.187z"></path>
</symbol>
<symbol id="icon-arrow-circle-left" viewBox="0 0 24 28">
<title>arrow-circle-left</title>
<path d="M20 15v-2c0-0.547-0.453-1-1-1h-7.844l2.953-2.953c0.187-0.187 0.297-0.438 0.297-0.703s-0.109-0.516-0.297-0.703l-1.422-1.422c-0.187-0.187-0.438-0.281-0.703-0.281s-0.516 0.094-0.703 0.281l-7.078 7.078c-0.187 0.187-0.281 0.438-0.281 0.703s0.094 0.516 0.281 0.703l7.078 7.078c0.187 0.187 0.438 0.281 0.703 0.281s0.516-0.094 0.703-0.281l1.422-1.422c0.187-0.187 0.281-0.438 0.281-0.703s-0.094-0.516-0.281-0.703l-2.953-2.953h7.844c0.547 0 1-0.453 1-1zM24 14c0 6.625-5.375 12-12 12s-12-5.375-12-12 5.375-12 12-12 12 5.375 12 12z"></path>
</symbol>
<symbol id="icon-arrow-circle-right" viewBox="0 0 24 28">
<title>arrow-circle-right</title>
<path d="M20.078 14c0-0.266-0.094-0.516-0.281-0.703l-7.078-7.078c-0.187-0.187-0.438-0.281-0.703-0.281s-0.516 0.094-0.703 0.281l-1.422 1.422c-0.187 0.187-0.281 0.438-0.281 0.703s0.094 0.516 0.281 0.703l2.953 2.953h-7.844c-0.547 0-1 0.453-1 1v2c0 0.547 0.453 1 1 1h7.844l-2.953 2.953c-0.187 0.187-0.297 0.438-0.297 0.703s0.109 0.516 0.297 0.703l1.422 1.422c0.187 0.187 0.438 0.281 0.703 0.281s0.516-0.094 0.703-0.281l7.078-7.078c0.187-0.187 0.281-0.438 0.281-0.703zM24 14c0 6.625-5.375 12-12 12s-12-5.375-12-12 5.375-12 12-12 12 5.375 12 12z"></path>
</symbol>
<symbol id="icon-arrow-circle-up" viewBox="0 0 24 28">
<title>arrow-circle-up</title>
<path d="M20.062 13.984c0-0.266-0.094-0.516-0.281-0.703l-7.078-7.078c-0.187-0.187-0.438-0.281-0.703-0.281s-0.516 0.094-0.703 0.281l-7.078 7.078c-0.187 0.187-0.281 0.438-0.281 0.703s0.094 0.516 0.281 0.703l1.422 1.422c0.187 0.187 0.438 0.281 0.703 0.281s0.516-0.094 0.703-0.281l2.953-2.953v7.844c0 0.547 0.453 1 1 1h2c0.547 0 1-0.453 1-1v-7.844l2.953 2.953c0.187 0.187 0.438 0.297 0.703 0.297s0.516-0.109 0.703-0.297l1.422-1.422c0.187-0.187 0.281-0.438 0.281-0.703zM24 14c0 6.625-5.375 12-12 12s-12-5.375-12-12 5.375-12 12-12 12 5.375 12 12z"></path>
</symbol>
<symbol id="icon-arrow-circle-down" viewBox="0 0 24 28">
<title>arrow-circle-down</title>
<path d="M20.062 14.016c0-0.266-0.094-0.516-0.281-0.703l-1.422-1.422c-0.187-0.187-0.438-0.281-0.703-0.281s-0.516 0.094-0.703 0.281l-2.953 2.953v-7.844c0-0.547-0.453-1-1-1h-2c-0.547 0-1 0.453-1 1v7.844l-2.953-2.953c-0.187-0.187-0.438-0.297-0.703-0.297s-0.516 0.109-0.703 0.297l-1.422 1.422c-0.187 0.187-0.281 0.438-0.281 0.703s0.094 0.516 0.281 0.703l7.078 7.078c0.187 0.187 0.438 0.281 0.703 0.281s0.516-0.094 0.703-0.281l7.078-7.078c0.187-0.187 0.281-0.438 0.281-0.703zM24 14c0 6.625-5.375 12-12 12s-12-5.375-12-12 5.375-12 12-12 12 5.375 12 12z"></path>
</symbol>
<symbol id="icon-group" viewBox="0 0 30 28">
<title>group</title>
<path d="M9.266 14c-1.625 0.047-3.094 0.75-4.141 2h-2.094c-1.563 0-3.031-0.75-3.031-2.484 0-1.266-0.047-5.516 1.937-5.516 0.328 0 1.953 1.328 4.062 1.328 0.719 0 1.406-0.125 2.078-0.359-0.047 0.344-0.078 0.688-0.078 1.031 0 1.422 0.453 2.828 1.266 4zM26 23.953c0 2.531-1.672 4.047-4.172 4.047h-13.656c-2.5 0-4.172-1.516-4.172-4.047 0-3.531 0.828-8.953 5.406-8.953 0.531 0 2.469 2.172 5.594 2.172s5.063-2.172 5.594-2.172c4.578 0 5.406 5.422 5.406 8.953zM10 4c0 2.203-1.797 4-4 4s-4-1.797-4-4 1.797-4 4-4 4 1.797 4 4zM21 10c0 3.313-2.688 6-6 6s-6-2.688-6-6 2.688-6 6-6 6 2.688 6 6zM30 13.516c0 1.734-1.469 2.484-3.031 2.484h-2.094c-1.047-1.25-2.516-1.953-4.141-2 0.812-1.172 1.266-2.578 1.266-4 0-0.344-0.031-0.688-0.078-1.031 0.672 0.234 1.359 0.359 2.078 0.359 2.109 0 3.734-1.328 4.062-1.328 1.984 0 1.937 4.25 1.937 5.516zM28 4c0 2.203-1.797 4-4 4s-4-1.797-4-4 1.797-4 4-4 4 1.797 4 4z"></path>
</symbol>
<symbol id="icon-bars" viewBox="0 0 24 28">
<title>bars</title>
<path d="M24 21v2c0 0.547-0.453 1-1 1h-22c-0.547 0-1-0.453-1-1v-2c0-0.547 0.453-1 1-1h22c0.547 0 1 0.453 1 1zM24 13v2c0 0.547-0.453 1-1 1h-22c-0.547 0-1-0.453-1-1v-2c0-0.547 0.453-1 1-1h22c0.547 0 1 0.453 1 1zM24 5v2c0 0.547-0.453 1-1 1h-22c-0.547 0-1-0.453-1-1v-2c0-0.547 0.453-1 1-1h22c0.547 0 1 0.453 1 1z"></path>
</symbol>
<symbol id="icon-pinterest-square" viewBox="0 0 24 28">
<title>pinterest-square</title>
<path d="M19.5 2c2.484 0 4.5 2.016 4.5 4.5v15c0 2.484-2.016 4.5-4.5 4.5h-11.328c0.516-0.734 1.359-2 1.687-3.281 0 0 0.141-0.531 0.828-3.266 0.422 0.797 1.625 1.484 2.906 1.484 3.813 0 6.406-3.484 6.406-8.141 0-3.516-2.984-6.797-7.516-6.797-5.641 0-8.484 4.047-8.484 7.422 0 2.031 0.781 3.844 2.438 4.531 0.266 0.109 0.516 0 0.594-0.297 0.047-0.203 0.172-0.734 0.234-0.953 0.078-0.297 0.047-0.406-0.172-0.656-0.469-0.578-0.781-1.297-0.781-2.344 0-3 2.25-5.672 5.844-5.672 3.187 0 4.937 1.937 4.937 4.547 0 3.422-1.516 6.312-3.766 6.312-1.234 0-2.172-1.031-1.875-2.297 0.359-1.5 1.047-3.125 1.047-4.203 0-0.969-0.516-1.781-1.594-1.781-1.266 0-2.281 1.313-2.281 3.063 0 0 0 1.125 0.375 1.891-1.297 5.5-1.531 6.469-1.531 6.469-0.344 1.437-0.203 3.109-0.109 3.969h-2.859c-2.484 0-4.5-2.016-4.5-4.5v-15c0-2.484 2.016-4.5 4.5-4.5h15z"></path>
</symbol>
<symbol id="icon-google-plus-square" viewBox="0 0 24 28">
<title>google-plus-square</title>
<path d="M14.328 14.141c0-0.391-0.047-0.703-0.094-1h-5.656v2.063h3.391c-0.125 0.875-1.016 2.578-3.391 2.578-2.063 0-3.734-1.687-3.734-3.781s1.672-3.781 3.734-3.781c1.156 0 1.937 0.484 2.391 0.922l1.625-1.578c-1.047-0.969-2.406-1.563-4.016-1.563-3.328 0-6 2.688-6 6s2.672 6 6 6c3.453 0 5.75-2.438 5.75-5.859zM19.719 14.859h1.703v-1.719h-1.703v-1.719h-1.719v1.719h-1.719v1.719h1.719v1.719h1.719v-1.719zM24 6.5v15c0 2.484-2.016 4.5-4.5 4.5h-15c-2.484 0-4.5-2.016-4.5-4.5v-15c0-2.484 2.016-4.5 4.5-4.5h15c2.484 0 4.5 2.016 4.5 4.5z"></path>
</symbol>
<symbol id="icon-google-plus" viewBox="0 0 36 28">
<title>google-plus</title>
<path d="M22.453 14.266c0 6.547-4.391 11.188-11 11.188-6.328 0-11.453-5.125-11.453-11.453s5.125-11.453 11.453-11.453c3.094 0 5.672 1.125 7.672 3l-3.109 2.984c-0.844-0.812-2.328-1.766-4.562-1.766-3.906 0-7.094 3.234-7.094 7.234s3.187 7.234 7.094 7.234c4.531 0 6.234-3.266 6.5-4.937h-6.5v-3.938h10.813c0.109 0.578 0.187 1.156 0.187 1.906zM36 12.359v3.281h-3.266v3.266h-3.281v-3.266h-3.266v-3.281h3.266v-3.266h3.281v3.266h3.266z"></path>
</symbol>
<symbol id="icon-caret-down" viewBox="0 0 16 28">
<title>caret-down</title>
<path d="M16 11c0 0.266-0.109 0.516-0.297 0.703l-7 7c-0.187 0.187-0.438 0.297-0.703 0.297s-0.516-0.109-0.703-0.297l-7-7c-0.187-0.187-0.297-0.438-0.297-0.703 0-0.547 0.453-1 1-1h14c0.547 0 1 0.453 1 1z"></path>
</symbol>
<symbol id="icon-caret-up" viewBox="0 0 16 28">
<title>caret-up</title>
<path d="M16 19c0 0.547-0.453 1-1 1h-14c-0.547 0-1-0.453-1-1 0-0.266 0.109-0.516 0.297-0.703l7-7c0.187-0.187 0.438-0.297 0.703-0.297s0.516 0.109 0.703 0.297l7 7c0.187 0.187 0.297 0.438 0.297 0.703z"></path>
</symbol>
<symbol id="icon-caret-left" viewBox="0 0 11 28">
<title>caret-left</title>
<path d="M10 7v14c0 0.547-0.453 1-1 1-0.266 0-0.516-0.109-0.703-0.297l-7-7c-0.187-0.187-0.297-0.438-0.297-0.703s0.109-0.516 0.297-0.703l7-7c0.187-0.187 0.438-0.297 0.703-0.297 0.547 0 1 0.453 1 1z"></path>
</symbol>
<symbol id="icon-caret-right" viewBox="0 0 9 28">
<title>caret-right</title>
<path d="M9 14c0 0.266-0.109 0.516-0.297 0.703l-7 7c-0.187 0.187-0.438 0.297-0.703 0.297-0.547 0-1-0.453-1-1v-14c0-0.547 0.453-1 1-1 0.266 0 0.516 0.109 0.703 0.297l7 7c0.187 0.187 0.297 0.438 0.297 0.703z"></path>
</symbol>
<symbol id="icon-sort" viewBox="0 0 16 28">
<title>sort</title>
<path d="M16 17c0 0.266-0.109 0.516-0.297 0.703l-7 7c-0.187 0.187-0.438 0.297-0.703 0.297s-0.516-0.109-0.703-0.297l-7-7c-0.187-0.187-0.297-0.438-0.297-0.703 0-0.547 0.453-1 1-1h14c0.547 0 1 0.453 1 1zM16 11c0 0.547-0.453 1-1 1h-14c-0.547 0-1-0.453-1-1 0-0.266 0.109-0.516 0.297-0.703l7-7c0.187-0.187 0.438-0.297 0.703-0.297s0.516 0.109 0.703 0.297l7 7c0.187 0.187 0.297 0.438 0.297 0.703z"></path>
</symbol>
<symbol id="icon-envelope" viewBox="0 0 28 28">
<title>envelope</title>
<path d="M28 11.094v12.406c0 1.375-1.125 2.5-2.5 2.5h-23c-1.375 0-2.5-1.125-2.5-2.5v-12.406c0.469 0.516 1 0.969 1.578 1.359 2.594 1.766 5.219 3.531 7.766 5.391 1.313 0.969 2.938 2.156 4.641 2.156h0.031c1.703 0 3.328-1.188 4.641-2.156 2.547-1.844 5.172-3.625 7.781-5.391 0.562-0.391 1.094-0.844 1.563-1.359zM28 6.5c0 1.75-1.297 3.328-2.672 4.281-2.438 1.687-4.891 3.375-7.313 5.078-1.016 0.703-2.734 2.141-4 2.141h-0.031c-1.266 0-2.984-1.437-4-2.141-2.422-1.703-4.875-3.391-7.297-5.078-1.109-0.75-2.688-2.516-2.688-3.938 0-1.531 0.828-2.844 2.5-2.844h23c1.359 0 2.5 1.125 2.5 2.5z"></path>
</symbol>
<symbol id="icon-linkedin" viewBox="0 0 24 28">
<title>linkedin</title>
<path d="M5.453 9.766v15.484h-5.156v-15.484h5.156zM5.781 4.984c0.016 1.484-1.109 2.672-2.906 2.672v0h-0.031c-1.734 0-2.844-1.188-2.844-2.672 0-1.516 1.156-2.672 2.906-2.672 1.766 0 2.859 1.156 2.875 2.672zM24 16.375v8.875h-5.141v-8.281c0-2.078-0.75-3.5-2.609-3.5-1.422 0-2.266 0.953-2.641 1.875-0.125 0.344-0.172 0.797-0.172 1.266v8.641h-5.141c0.063-14.031 0-15.484 0-15.484h5.141v2.25h-0.031c0.672-1.062 1.891-2.609 4.672-2.609 3.391 0 5.922 2.219 5.922 6.969z"></path>
</symbol>
<symbol id="icon-comments-o" viewBox="0 0 28 28">
<title>comments-o</title>
<path d="M11 6c-4.875 0-9 2.75-9 6 0 1.719 1.156 3.375 3.156 4.531l1.516 0.875-0.547 1.313c0.328-0.187 0.656-0.391 0.969-0.609l0.688-0.484 0.828 0.156c0.781 0.141 1.578 0.219 2.391 0.219 4.875 0 9-2.75 9-6s-4.125-6-9-6zM11 4c6.078 0 11 3.578 11 8s-4.922 8-11 8c-0.953 0-1.875-0.094-2.75-0.25-1.297 0.922-2.766 1.594-4.344 2-0.422 0.109-0.875 0.187-1.344 0.25h-0.047c-0.234 0-0.453-0.187-0.5-0.453v0c-0.063-0.297 0.141-0.484 0.313-0.688 0.609-0.688 1.297-1.297 1.828-2.594-2.531-1.469-4.156-3.734-4.156-6.266 0-4.422 4.922-8 11-8zM23.844 22.266c0.531 1.297 1.219 1.906 1.828 2.594 0.172 0.203 0.375 0.391 0.313 0.688v0c-0.063 0.281-0.297 0.484-0.547 0.453-0.469-0.063-0.922-0.141-1.344-0.25-1.578-0.406-3.047-1.078-4.344-2-0.875 0.156-1.797 0.25-2.75 0.25-2.828 0-5.422-0.781-7.375-2.063 0.453 0.031 0.922 0.063 1.375 0.063 3.359 0 6.531-0.969 8.953-2.719 2.609-1.906 4.047-4.484 4.047-7.281 0-0.812-0.125-1.609-0.359-2.375 2.641 1.453 4.359 3.766 4.359 6.375 0 2.547-1.625 4.797-4.156 6.266z"></path>
</symbol>
<symbol id="icon-plus-square" viewBox="0 0 24 28">
<title>plus-square</title>
<path d="M20 15v-2c0-0.547-0.453-1-1-1h-5v-5c0-0.547-0.453-1-1-1h-2c-0.547 0-1 0.453-1 1v5h-5c-0.547 0-1 0.453-1 1v2c0 0.547 0.453 1 1 1h5v5c0 0.547 0.453 1 1 1h2c0.547 0 1-0.453 1-1v-5h5c0.547 0 1-0.453 1-1zM24 6.5v15c0 2.484-2.016 4.5-4.5 4.5h-15c-2.484 0-4.5-2.016-4.5-4.5v-15c0-2.484 2.016-4.5 4.5-4.5h15c2.484 0 4.5 2.016 4.5 4.5z"></path>
</symbol>
<symbol id="icon-angle-double-left" viewBox="0 0 17 28">
<title>angle-double-left</title>
<path d="M9.797 21.5c0 0.125-0.063 0.266-0.156 0.359l-0.781 0.781c-0.094 0.094-0.234 0.156-0.359 0.156s-0.266-0.063-0.359-0.156l-7.281-7.281c-0.094-0.094-0.156-0.234-0.156-0.359s0.063-0.266 0.156-0.359l7.281-7.281c0.094-0.094 0.234-0.156 0.359-0.156s0.266 0.063 0.359 0.156l0.781 0.781c0.094 0.094 0.156 0.234 0.156 0.359s-0.063 0.266-0.156 0.359l-6.141 6.141 6.141 6.141c0.094 0.094 0.156 0.234 0.156 0.359zM15.797 21.5c0 0.125-0.063 0.266-0.156 0.359l-0.781 0.781c-0.094 0.094-0.234 0.156-0.359 0.156s-0.266-0.063-0.359-0.156l-7.281-7.281c-0.094-0.094-0.156-0.234-0.156-0.359s0.063-0.266 0.156-0.359l7.281-7.281c0.094-0.094 0.234-0.156 0.359-0.156s0.266 0.063 0.359 0.156l0.781 0.781c0.094 0.094 0.156 0.234 0.156 0.359s-0.063 0.266-0.156 0.359l-6.141 6.141 6.141 6.141c0.094 0.094 0.156 0.234 0.156 0.359z"></path>
</symbol>
<symbol id="icon-angle-double-right" viewBox="0 0 15 28">
<title>angle-double-right</title>
<path d="M9.297 15c0 0.125-0.063 0.266-0.156 0.359l-7.281 7.281c-0.094 0.094-0.234 0.156-0.359 0.156s-0.266-0.063-0.359-0.156l-0.781-0.781c-0.094-0.094-0.156-0.234-0.156-0.359s0.063-0.266 0.156-0.359l6.141-6.141-6.141-6.141c-0.094-0.094-0.156-0.234-0.156-0.359s0.063-0.266 0.156-0.359l0.781-0.781c0.094-0.094 0.234-0.156 0.359-0.156s0.266 0.063 0.359 0.156l7.281 7.281c0.094 0.094 0.156 0.234 0.156 0.359zM15.297 15c0 0.125-0.063 0.266-0.156 0.359l-7.281 7.281c-0.094 0.094-0.234 0.156-0.359 0.156s-0.266-0.063-0.359-0.156l-0.781-0.781c-0.094-0.094-0.156-0.234-0.156-0.359s0.063-0.266 0.156-0.359l6.141-6.141-6.141-6.141c-0.094-0.094-0.156-0.234-0.156-0.359s0.063-0.266 0.156-0.359l0.781-0.781c0.094-0.094 0.234-0.156 0.359-0.156s0.266 0.063 0.359 0.156l7.281 7.281c0.094 0.094 0.156 0.234 0.156 0.359z"></path>
</symbol>
<symbol id="icon-angle-double-up" viewBox="0 0 18 28">
<title>angle-double-up</title>
<path d="M16.797 20.5c0 0.125-0.063 0.266-0.156 0.359l-0.781 0.781c-0.094 0.094-0.219 0.156-0.359 0.156-0.125 0-0.266-0.063-0.359-0.156l-6.141-6.141-6.141 6.141c-0.094 0.094-0.234 0.156-0.359 0.156s-0.266-0.063-0.359-0.156l-0.781-0.781c-0.094-0.094-0.156-0.234-0.156-0.359s0.063-0.266 0.156-0.359l7.281-7.281c0.094-0.094 0.234-0.156 0.359-0.156s0.266 0.063 0.359 0.156l7.281 7.281c0.094 0.094 0.156 0.234 0.156 0.359zM16.797 14.5c0 0.125-0.063 0.266-0.156 0.359l-0.781 0.781c-0.094 0.094-0.219 0.156-0.359 0.156-0.125 0-0.266-0.063-0.359-0.156l-6.141-6.141-6.141 6.141c-0.094 0.094-0.234 0.156-0.359 0.156s-0.266-0.063-0.359-0.156l-0.781-0.781c-0.094-0.094-0.156-0.234-0.156-0.359s0.063-0.266 0.156-0.359l7.281-7.281c0.094-0.094 0.234-0.156 0.359-0.156s0.266 0.063 0.359 0.156l7.281 7.281c0.094 0.094 0.156 0.234 0.156 0.359z"></path>
</symbol>
<symbol id="icon-angle-double-down" viewBox="0 0 18 28">
<title>angle-double-down</title>
<path d="M16.797 13.5c0 0.125-0.063 0.266-0.156 0.359l-7.281 7.281c-0.094 0.094-0.234 0.156-0.359 0.156s-0.266-0.063-0.359-0.156l-7.281-7.281c-0.094-0.094-0.156-0.234-0.156-0.359s0.063-0.266 0.156-0.359l0.781-0.781c0.094-0.094 0.219-0.156 0.359-0.156 0.125 0 0.266 0.063 0.359 0.156l6.141 6.141 6.141-6.141c0.094-0.094 0.234-0.156 0.359-0.156s0.266 0.063 0.359 0.156l0.781 0.781c0.094 0.094 0.156 0.234 0.156 0.359zM16.797 7.5c0 0.125-0.063 0.266-0.156 0.359l-7.281 7.281c-0.094 0.094-0.234 0.156-0.359 0.156s-0.266-0.063-0.359-0.156l-7.281-7.281c-0.094-0.094-0.156-0.234-0.156-0.359s0.063-0.266 0.156-0.359l0.781-0.781c0.094-0.094 0.219-0.156 0.359-0.156 0.125 0 0.266 0.063 0.359 0.156l6.141 6.141 6.141-6.141c0.094-0.094 0.234-0.156 0.359-0.156s0.266 0.063 0.359 0.156l0.781 0.781c0.094 0.094 0.156 0.234 0.156 0.359z"></path>
</symbol>
<symbol id="icon-angle-left" viewBox="0 0 11 28">
<title>angle-left</title>
<path d="M9.797 8.5c0 0.125-0.063 0.266-0.156 0.359l-6.141 6.141 6.141 6.141c0.094 0.094 0.156 0.234 0.156 0.359s-0.063 0.266-0.156 0.359l-0.781 0.781c-0.094 0.094-0.234 0.156-0.359 0.156s-0.266-0.063-0.359-0.156l-7.281-7.281c-0.094-0.094-0.156-0.234-0.156-0.359s0.063-0.266 0.156-0.359l7.281-7.281c0.094-0.094 0.234-0.156 0.359-0.156s0.266 0.063 0.359 0.156l0.781 0.781c0.094 0.094 0.156 0.219 0.156 0.359z"></path>
</symbol>
<symbol id="icon-angle-right" viewBox="0 0 9 28">
<title>angle-right</title>
<path d="M9.297 15c0 0.125-0.063 0.266-0.156 0.359l-7.281 7.281c-0.094 0.094-0.234 0.156-0.359 0.156s-0.266-0.063-0.359-0.156l-0.781-0.781c-0.094-0.094-0.156-0.219-0.156-0.359 0-0.125 0.063-0.266 0.156-0.359l6.141-6.141-6.141-6.141c-0.094-0.094-0.156-0.234-0.156-0.359s0.063-0.266 0.156-0.359l0.781-0.781c0.094-0.094 0.234-0.156 0.359-0.156s0.266 0.063 0.359 0.156l7.281 7.281c0.094 0.094 0.156 0.234 0.156 0.359z"></path>
</symbol>
<symbol id="icon-angle-up" viewBox="0 0 18 28">
<title>angle-up</title>
<path d="M16.797 18.5c0 0.125-0.063 0.266-0.156 0.359l-0.781 0.781c-0.094 0.094-0.219 0.156-0.359 0.156-0.125 0-0.266-0.063-0.359-0.156l-6.141-6.141-6.141 6.141c-0.094 0.094-0.234 0.156-0.359 0.156s-0.266-0.063-0.359-0.156l-0.781-0.781c-0.094-0.094-0.156-0.234-0.156-0.359s0.063-0.266 0.156-0.359l7.281-7.281c0.094-0.094 0.234-0.156 0.359-0.156s0.266 0.063 0.359 0.156l7.281 7.281c0.094 0.094 0.156 0.234 0.156 0.359z"></path>
</symbol>
<symbol id="icon-angle-down" viewBox="0 0 18 28">
<title>angle-down</title>
<path d="M16.797 11.5c0 0.125-0.063 0.266-0.156 0.359l-7.281 7.281c-0.094 0.094-0.234 0.156-0.359 0.156s-0.266-0.063-0.359-0.156l-7.281-7.281c-0.094-0.094-0.156-0.234-0.156-0.359s0.063-0.266 0.156-0.359l0.781-0.781c0.094-0.094 0.219-0.156 0.359-0.156 0.125 0 0.266 0.063 0.359 0.156l6.141 6.141 6.141-6.141c0.094-0.094 0.234-0.156 0.359-0.156s0.266 0.063 0.359 0.156l0.781 0.781c0.094 0.094 0.156 0.234 0.156 0.359z"></path>
</symbol>
<symbol id="icon-quote-left" viewBox="0 0 26 28">
<title>quote-left</title>
<path d="M12 15v6c0 1.656-1.344 3-3 3h-6c-1.656 0-3-1.344-3-3v-11c0-4.406 3.594-8 8-8h1c0.547 0 1 0.453 1 1v2c0 0.547-0.453 1-1 1h-1c-2.203 0-4 1.797-4 4v0.5c0 0.828 0.672 1.5 1.5 1.5h3.5c1.656 0 3 1.344 3 3zM26 15v6c0 1.656-1.344 3-3 3h-6c-1.656 0-3-1.344-3-3v-11c0-4.406 3.594-8 8-8h1c0.547 0 1 0.453 1 1v2c0 0.547-0.453 1-1 1h-1c-2.203 0-4 1.797-4 4v0.5c0 0.828 0.672 1.5 1.5 1.5h3.5c1.656 0 3 1.344 3 3z"></path>
</symbol>
<symbol id="icon-quote-right" viewBox="0 0 26 28">
<title>quote-right</title>
<path d="M12 5v11c0 4.406-3.594 8-8 8h-1c-0.547 0-1-0.453-1-1v-2c0-0.547 0.453-1 1-1h1c2.203 0 4-1.797 4-4v-0.5c0-0.828-0.672-1.5-1.5-1.5h-3.5c-1.656 0-3-1.344-3-3v-6c0-1.656 1.344-3 3-3h6c1.656 0 3 1.344 3 3zM26 5v11c0 4.406-3.594 8-8 8h-1c-0.547 0-1-0.453-1-1v-2c0-0.547 0.453-1 1-1h1c2.203 0 4-1.797 4-4v-0.5c0-0.828-0.672-1.5-1.5-1.5h-3.5c-1.656 0-3-1.344-3-3v-6c0-1.656 1.344-3 3-3h6c1.656 0 3 1.344 3 3z"></path>
</symbol>
<symbol id="icon-spinner" viewBox="0 0 28 28">
<title>spinner</title>
<path d="M8.219 21.781c0 1.094-0.891 2-2 2-1.094 0-2-0.906-2-2 0-1.109 0.906-2 2-2 1.109 0 2 0.891 2 2zM16 25c0 1.109-0.891 2-2 2s-2-0.891-2-2 0.891-2 2-2 2 0.891 2 2zM5 14c0 1.109-0.891 2-2 2s-2-0.891-2-2 0.891-2 2-2 2 0.891 2 2zM23.781 21.781c0 1.094-0.906 2-2 2-1.109 0-2-0.906-2-2 0-1.109 0.891-2 2-2 1.094 0 2 0.891 2 2zM8.719 6.219c0 1.375-1.125 2.5-2.5 2.5s-2.5-1.125-2.5-2.5 1.125-2.5 2.5-2.5 2.5 1.125 2.5 2.5zM27 14c0 1.109-0.891 2-2 2s-2-0.891-2-2 0.891-2 2-2 2 0.891 2 2zM17 3c0 1.656-1.344 3-3 3s-3-1.344-3-3 1.344-3 3-3 3 1.344 3 3zM25.281 6.219c0 1.937-1.578 3.5-3.5 3.5-1.937 0-3.5-1.563-3.5-3.5 0-1.922 1.563-3.5 3.5-3.5 1.922 0 3.5 1.578 3.5 3.5z"></path>
</symbol>
<symbol id="icon-info" viewBox="0 0 10 28">
<title>info</title>
<path d="M10 21v2c0 0.547-0.453 1-1 1h-8c-0.547 0-1-0.453-1-1v-2c0-0.547 0.453-1 1-1h1v-6h-1c-0.547 0-1-0.453-1-1v-2c0-0.547 0.453-1 1-1h6c0.547 0 1 0.453 1 1v9h1c0.547 0 1 0.453 1 1zM8 3v3c0 0.547-0.453 1-1 1h-4c-0.547 0-1-0.453-1-1v-3c0-0.547 0.453-1 1-1h4c0.547 0 1 0.453 1 1z"></path>
</symbol>
<symbol id="icon-exclamation" viewBox="0 0 10 28">
<title>exclamation</title>
<path d="M8 19.5v3.5c0 0.547-0.453 1-1 1h-4c-0.547 0-1-0.453-1-1v-3.5c0-0.547 0.453-1 1-1h4c0.547 0 1 0.453 1 1zM8.469 3l-0.438 12c-0.016 0.547-0.484 1-1.031 1h-4c-0.547 0-1.016-0.453-1.031-1l-0.438-12c-0.016-0.547 0.422-1 0.969-1h5c0.547 0 0.984 0.453 0.969 1z"></path>
</symbol>
<symbol id="icon-chevron-circle-left" viewBox="0 0 24 28">
<title>chevron-circle-left</title>
<path d="M14.203 21.797l1.594-1.594c0.391-0.391 0.391-1.016 0-1.406l-4.797-4.797 4.797-4.797c0.391-0.391 0.391-1.016 0-1.406l-1.594-1.594c-0.391-0.391-1.016-0.391-1.406 0l-7.094 7.094c-0.391 0.391-0.391 1.016 0 1.406l7.094 7.094c0.391 0.391 1.016 0.391 1.406 0zM24 14c0 6.625-5.375 12-12 12s-12-5.375-12-12 5.375-12 12-12 12 5.375 12 12z"></path>
</symbol>
<symbol id="icon-chevron-circle-right" viewBox="0 0 24 28">
<title>chevron-circle-right</title>
<path d="M11.203 21.797l7.094-7.094c0.391-0.391 0.391-1.016 0-1.406l-7.094-7.094c-0.391-0.391-1.016-0.391-1.406 0l-1.594 1.594c-0.391 0.391-0.391 1.016 0 1.406l4.797 4.797-4.797 4.797c-0.391 0.391-0.391 1.016 0 1.406l1.594 1.594c0.391 0.391 1.016 0.391 1.406 0zM24 14c0 6.625-5.375 12-12 12s-12-5.375-12-12 5.375-12 12-12 12 5.375 12 12z"></path>
</symbol>
<symbol id="icon-chevron-circle-up" viewBox="0 0 24 28">
<title>chevron-circle-up</title>
<path d="M18.203 17.797l1.594-1.594c0.391-0.391 0.391-1.016 0-1.406l-7.094-7.094c-0.391-0.391-1.016-0.391-1.406 0l-7.094 7.094c-0.391 0.391-0.391 1.016 0 1.406l1.594 1.594c0.391 0.391 1.016 0.391 1.406 0l4.797-4.797 4.797 4.797c0.391 0.391 1.016 0.391 1.406 0zM24 14c0 6.625-5.375 12-12 12s-12-5.375-12-12 5.375-12 12-12 12 5.375 12 12z"></path>
</symbol>
<symbol id="icon-chevron-circle-down" viewBox="0 0 24 28">
<title>chevron-circle-down</title>
<path d="M12.703 20.297l7.094-7.094c0.391-0.391 0.391-1.016 0-1.406l-1.594-1.594c-0.391-0.391-1.016-0.391-1.406 0l-4.797 4.797-4.797-4.797c-0.391-0.391-1.016-0.391-1.406 0l-1.594 1.594c-0.391 0.391-0.391 1.016 0 1.406l7.094 7.094c0.391 0.391 1.016 0.391 1.406 0zM24 14c0 6.625-5.375 12-12 12s-12-5.375-12-12 5.375-12 12-12 12 5.375 12 12z"></path>
</symbol>
<symbol id="icon-ellipsis-h" viewBox="0 0 22 28">
<title>ellipsis-h</title>
<path d="M6 11.5v3c0 0.828-0.672 1.5-1.5 1.5h-3c-0.828 0-1.5-0.672-1.5-1.5v-3c0-0.828 0.672-1.5 1.5-1.5h3c0.828 0 1.5 0.672 1.5 1.5zM14 11.5v3c0 0.828-0.672 1.5-1.5 1.5h-3c-0.828 0-1.5-0.672-1.5-1.5v-3c0-0.828 0.672-1.5 1.5-1.5h3c0.828 0 1.5 0.672 1.5 1.5zM22 11.5v3c0 0.828-0.672 1.5-1.5 1.5h-3c-0.828 0-1.5-0.672-1.5-1.5v-3c0-0.828 0.672-1.5 1.5-1.5h3c0.828 0 1.5 0.672 1.5 1.5z"></path>
</symbol>
<symbol id="icon-ellipsis-v" viewBox="0 0 6 28">
<title>ellipsis-v</title>
<path d="M6 19.5v3c0 0.828-0.672 1.5-1.5 1.5h-3c-0.828 0-1.5-0.672-1.5-1.5v-3c0-0.828 0.672-1.5 1.5-1.5h3c0.828 0 1.5 0.672 1.5 1.5zM6 11.5v3c0 0.828-0.672 1.5-1.5 1.5h-3c-0.828 0-1.5-0.672-1.5-1.5v-3c0-0.828 0.672-1.5 1.5-1.5h3c0.828 0 1.5 0.672 1.5 1.5zM6 3.5v3c0 0.828-0.672 1.5-1.5 1.5h-3c-0.828 0-1.5-0.672-1.5-1.5v-3c0-0.828 0.672-1.5 1.5-1.5h3c0.828 0 1.5 0.672 1.5 1.5z"></path>
</symbol>
<symbol id="icon-minus-square" viewBox="0 0 24 28">
<title>minus-square</title>
<path d="M20 15v-2c0-0.547-0.453-1-1-1h-14c-0.547 0-1 0.453-1 1v2c0 0.547 0.453 1 1 1h14c0.547 0 1-0.453 1-1zM24 6.5v15c0 2.484-2.016 4.5-4.5 4.5h-15c-2.484 0-4.5-2.016-4.5-4.5v-15c0-2.484 2.016-4.5 4.5-4.5h15c2.484 0 4.5 2.016 4.5 4.5z"></path>
</symbol>
<symbol id="icon-minus-square-o" viewBox="0 0 22 28">
<title>minus-square-o</title>
<path d="M18 12.5v1c0 0.281-0.219 0.5-0.5 0.5h-13c-0.281 0-0.5-0.219-0.5-0.5v-1c0-0.281 0.219-0.5 0.5-0.5h13c0.281 0 0.5 0.219 0.5 0.5zM20 19.5v-13c0-1.375-1.125-2.5-2.5-2.5h-13c-1.375 0-2.5 1.125-2.5 2.5v13c0 1.375 1.125 2.5 2.5 2.5h13c1.375 0 2.5-1.125 2.5-2.5zM22 6.5v13c0 2.484-2.016 4.5-4.5 4.5h-13c-2.484 0-4.5-2.016-4.5-4.5v-13c0-2.484 2.016-4.5 4.5-4.5h13c2.484 0 4.5 2.016 4.5 4.5z"></path>
</symbol>
<symbol id="icon-youtube-square" viewBox="0 0 24 28">
<title>youtube-square</title>
<path d="M14.359 20.359v-2.453c0-0.516-0.156-0.781-0.453-0.781-0.172 0-0.344 0.078-0.516 0.25v3.5c0.172 0.172 0.344 0.25 0.516 0.25 0.297 0 0.453-0.25 0.453-0.766zM17.234 18.453h1.031v-0.531c0-0.531-0.172-0.797-0.516-0.797s-0.516 0.266-0.516 0.797v0.531zM8.313 14.297v1.094h-1.25v6.609h-1.156v-6.609h-1.219v-1.094h3.625zM11.453 16.266v5.734h-1.047v-0.625c-0.406 0.469-0.797 0.703-1.188 0.703-0.328 0-0.562-0.141-0.656-0.438-0.063-0.172-0.094-0.438-0.094-0.844v-4.531h1.031v4.219c0 0.234 0 0.375 0.016 0.406 0.016 0.156 0.094 0.234 0.234 0.234 0.219 0 0.422-0.156 0.656-0.484v-4.375h1.047zM15.391 18v2.281c0 0.516-0.031 0.906-0.109 1.141-0.125 0.438-0.406 0.656-0.828 0.656-0.359 0-0.719-0.219-1.062-0.641v0.562h-1.047v-7.703h1.047v2.516c0.328-0.406 0.688-0.625 1.062-0.625 0.422 0 0.703 0.219 0.828 0.656 0.078 0.234 0.109 0.609 0.109 1.156zM19.313 20.016v0.141c0 0.344-0.016 0.562-0.031 0.672-0.031 0.234-0.109 0.438-0.234 0.625-0.281 0.422-0.719 0.625-1.25 0.625-0.547 0-0.969-0.203-1.266-0.594-0.219-0.281-0.328-0.734-0.328-1.344v-2.016c0-0.609 0.094-1.047 0.313-1.344 0.297-0.391 0.719-0.594 1.25-0.594 0.516 0 0.938 0.203 1.219 0.594 0.219 0.297 0.328 0.734 0.328 1.344v1.188h-2.078v1.016c0 0.531 0.172 0.797 0.531 0.797 0.25 0 0.406-0.141 0.469-0.406 0-0.063 0.016-0.297 0.016-0.703h1.062zM12.266 7.141v2.438c0 0.531-0.172 0.797-0.5 0.797-0.344 0-0.5-0.266-0.5-0.797v-2.438c0-0.531 0.156-0.812 0.5-0.812 0.328 0 0.5 0.281 0.5 0.812zM20.594 18.281v0c0-1.344 0-2.766-0.297-4.062-0.219-0.922-0.969-1.594-1.859-1.687-2.125-0.234-4.281-0.234-6.438-0.234-2.141 0-4.297 0-6.422 0.234-0.906 0.094-1.656 0.766-1.859 1.687-0.297 1.297-0.313 2.719-0.313 4.062v0c0 1.328 0 2.75 0.313 4.062 0.203 0.906 0.953 1.578 1.844 1.687 2.141 0.234 4.297 0.234 6.438 0.234s4.297 0 6.438-0.234c0.891-0.109 1.641-0.781 1.844-1.687 0.313-1.313 0.313-2.734 0.313-4.062zM8.797 8.109l1.406-4.625h-1.172l-0.797 3.047-0.828-3.047h-1.219c0.234 0.719 0.5 1.437 0.734 2.156 0.375 1.094 0.609 1.906 0.719 2.469v3.141h1.156v-3.141zM13.312 9.375v-2.031c0-0.609-0.109-1.062-0.328-1.359-0.297-0.391-0.703-0.594-1.219-0.594-0.531 0-0.938 0.203-1.219 0.594-0.219 0.297-0.328 0.75-0.328 1.359v2.031c0 0.609 0.109 1.062 0.328 1.359 0.281 0.391 0.688 0.594 1.219 0.594 0.516 0 0.922-0.203 1.219-0.594 0.219-0.281 0.328-0.75 0.328-1.359zM16.141 11.25h1.047v-5.781h-1.047v4.422c-0.234 0.328-0.453 0.484-0.656 0.484-0.141 0-0.234-0.078-0.25-0.25-0.016-0.031-0.016-0.156-0.016-0.406v-4.25h-1.047v4.578c0 0.406 0.031 0.672 0.094 0.859 0.109 0.281 0.344 0.422 0.672 0.422 0.391 0 0.781-0.234 1.203-0.703v0.625zM24 6.5v15c0 2.484-2.016 4.5-4.5 4.5h-15c-2.484 0-4.5-2.016-4.5-4.5v-15c0-2.484 2.016-4.5 4.5-4.5h15c2.484 0 4.5 2.016 4.5 4.5z"></path>
</symbol>
<symbol id="icon-youtube" viewBox="0 0 24 28">
<title>youtube</title>
<path d="M15.172 19.437v3.297c0 0.703-0.203 1.047-0.609 1.047-0.234 0-0.469-0.109-0.703-0.344v-4.703c0.234-0.234 0.469-0.344 0.703-0.344 0.406 0 0.609 0.359 0.609 1.047zM20.453 19.453v0.719h-1.406v-0.719c0-0.703 0.234-1.062 0.703-1.062s0.703 0.359 0.703 1.062zM5.359 16.047h1.672v-1.469h-4.875v1.469h1.641v8.891h1.563v-8.891zM9.859 24.938h1.391v-7.719h-1.391v5.906c-0.313 0.438-0.609 0.656-0.891 0.656-0.187 0-0.297-0.109-0.328-0.328-0.016-0.047-0.016-0.219-0.016-0.547v-5.688h-1.391v6.109c0 0.547 0.047 0.906 0.125 1.141 0.125 0.391 0.453 0.578 0.906 0.578 0.5 0 1.031-0.313 1.594-0.953v0.844zM16.562 22.625v-3.078c0-0.719-0.031-1.234-0.141-1.547-0.172-0.578-0.562-0.875-1.109-0.875-0.516 0-1 0.281-1.453 0.844v-3.391h-1.391v10.359h1.391v-0.75c0.469 0.578 0.953 0.859 1.453 0.859 0.547 0 0.938-0.297 1.109-0.859 0.109-0.328 0.141-0.844 0.141-1.563zM21.844 22.469v-0.203h-1.422c0 0.562-0.016 0.875-0.031 0.953-0.078 0.375-0.281 0.562-0.625 0.562-0.484 0-0.719-0.359-0.719-1.078v-1.359h2.797v-1.609c0-0.828-0.141-1.422-0.422-1.813-0.406-0.531-0.953-0.797-1.656-0.797-0.719 0-1.266 0.266-1.672 0.797-0.297 0.391-0.438 0.984-0.438 1.813v2.703c0 0.828 0.156 1.437 0.453 1.813 0.406 0.531 0.953 0.797 1.687 0.797s1.313-0.281 1.687-0.828c0.172-0.25 0.297-0.531 0.328-0.844 0.031-0.141 0.031-0.453 0.031-0.906zM12.344 8.203v-3.281c0-0.719-0.203-1.078-0.672-1.078-0.453 0-0.672 0.359-0.672 1.078v3.281c0 0.719 0.219 1.094 0.672 1.094 0.469 0 0.672-0.375 0.672-1.094zM23.578 19.938c0 1.797-0.016 3.719-0.406 5.469-0.297 1.234-1.297 2.141-2.5 2.266-2.875 0.328-5.781 0.328-8.672 0.328s-5.797 0-8.672-0.328c-1.203-0.125-2.219-1.031-2.5-2.266-0.406-1.75-0.406-3.672-0.406-5.469v0c0-1.813 0.016-3.719 0.406-5.469 0.297-1.234 1.297-2.141 2.516-2.281 2.859-0.313 5.766-0.313 8.656-0.313s5.797 0 8.672 0.313c1.203 0.141 2.219 1.047 2.5 2.281 0.406 1.75 0.406 3.656 0.406 5.469zM7.984 0h1.594l-1.891 6.234v4.234h-1.563v-4.234c-0.141-0.766-0.453-1.859-0.953-3.313-0.344-0.969-0.688-1.953-1.016-2.922h1.656l1.109 4.109zM13.766 5.203v2.734c0 0.828-0.141 1.453-0.438 1.844-0.391 0.531-0.938 0.797-1.656 0.797-0.703 0-1.25-0.266-1.641-0.797-0.297-0.406-0.438-1.016-0.438-1.844v-2.734c0-0.828 0.141-1.437 0.438-1.828 0.391-0.531 0.938-0.797 1.641-0.797 0.719 0 1.266 0.266 1.656 0.797 0.297 0.391 0.438 1 0.438 1.828zM19 2.672v7.797h-1.422v-0.859c-0.562 0.656-1.094 0.969-1.609 0.969-0.453 0-0.781-0.187-0.922-0.578-0.078-0.234-0.125-0.609-0.125-1.172v-6.156h1.422v5.734c0 0.328 0 0.516 0.016 0.547 0.031 0.219 0.141 0.344 0.328 0.344 0.281 0 0.578-0.219 0.891-0.672v-5.953h1.422z"></path>
</symbol>
<symbol id="icon-youtube-play" viewBox="0 0 28 28">
<title>youtube-play</title>
<path d="M11.109 17.625l7.562-3.906-7.562-3.953v7.859zM14 4.156c5.891 0 9.797 0.281 9.797 0.281 0.547 0.063 1.75 0.063 2.812 1.188 0 0 0.859 0.844 1.109 2.781 0.297 2.266 0.281 4.531 0.281 4.531v2.125s0.016 2.266-0.281 4.531c-0.25 1.922-1.109 2.781-1.109 2.781-1.062 1.109-2.266 1.109-2.812 1.172 0 0-3.906 0.297-9.797 0.297v0c-7.281-0.063-9.516-0.281-9.516-0.281-0.625-0.109-2.031-0.078-3.094-1.188 0 0-0.859-0.859-1.109-2.781-0.297-2.266-0.281-4.531-0.281-4.531v-2.125s-0.016-2.266 0.281-4.531c0.25-1.937 1.109-2.781 1.109-2.781 1.062-1.125 2.266-1.125 2.812-1.188 0 0 3.906-0.281 9.797-0.281v0z"></path>
</symbol>
<symbol id="icon-instagram" viewBox="0 0 24 28">
<title>instagram</title>
<path d="M16 14c0-2.203-1.797-4-4-4s-4 1.797-4 4 1.797 4 4 4 4-1.797 4-4zM18.156 14c0 3.406-2.75 6.156-6.156 6.156s-6.156-2.75-6.156-6.156 2.75-6.156 6.156-6.156 6.156 2.75 6.156 6.156zM19.844 7.594c0 0.797-0.641 1.437-1.437 1.437s-1.437-0.641-1.437-1.437 0.641-1.437 1.437-1.437 1.437 0.641 1.437 1.437zM12 4.156c-1.75 0-5.5-0.141-7.078 0.484-0.547 0.219-0.953 0.484-1.375 0.906s-0.688 0.828-0.906 1.375c-0.625 1.578-0.484 5.328-0.484 7.078s-0.141 5.5 0.484 7.078c0.219 0.547 0.484 0.953 0.906 1.375s0.828 0.688 1.375 0.906c1.578 0.625 5.328 0.484 7.078 0.484s5.5 0.141 7.078-0.484c0.547-0.219 0.953-0.484 1.375-0.906s0.688-0.828 0.906-1.375c0.625-1.578 0.484-5.328 0.484-7.078s0.141-5.5-0.484-7.078c-0.219-0.547-0.484-0.953-0.906-1.375s-0.828-0.688-1.375-0.906c-1.578-0.625-5.328-0.484-7.078-0.484zM24 14c0 1.656 0.016 3.297-0.078 4.953-0.094 1.922-0.531 3.625-1.937 5.031s-3.109 1.844-5.031 1.937c-1.656 0.094-3.297 0.078-4.953 0.078s-3.297 0.016-4.953-0.078c-1.922-0.094-3.625-0.531-5.031-1.937s-1.844-3.109-1.937-5.031c-0.094-1.656-0.078-3.297-0.078-4.953s-0.016-3.297 0.078-4.953c0.094-1.922 0.531-3.625 1.937-5.031s3.109-1.844 5.031-1.937c1.656-0.094 3.297-0.078 4.953-0.078s3.297-0.016 4.953 0.078c1.922 0.094 3.625 0.531 5.031 1.937s1.844 3.109 1.937 5.031c0.094 1.656 0.078 3.297 0.078 4.953z"></path>
</symbol>
<symbol id="icon-plus-square-o" viewBox="0 0 22 28">
<title>plus-square-o</title>
<path d="M18 12.5v1c0 0.281-0.219 0.5-0.5 0.5h-5.5v5.5c0 0.281-0.219 0.5-0.5 0.5h-1c-0.281 0-0.5-0.219-0.5-0.5v-5.5h-5.5c-0.281 0-0.5-0.219-0.5-0.5v-1c0-0.281 0.219-0.5 0.5-0.5h5.5v-5.5c0-0.281 0.219-0.5 0.5-0.5h1c0.281 0 0.5 0.219 0.5 0.5v5.5h5.5c0.281 0 0.5 0.219 0.5 0.5zM20 19.5v-13c0-1.375-1.125-2.5-2.5-2.5h-13c-1.375 0-2.5 1.125-2.5 2.5v13c0 1.375 1.125 2.5 2.5 2.5h13c1.375 0 2.5-1.125 2.5-2.5zM22 6.5v13c0 2.484-2.016 4.5-4.5 4.5h-13c-2.484 0-4.5-2.016-4.5-4.5v-13c0-2.484 2.016-4.5 4.5-4.5h13c2.484 0 4.5 2.016 4.5 4.5z"></path>
</symbol>
<symbol id="icon-envelope-square" viewBox="0 0 24 28">
<title>envelope-square</title>
<path d="M19.5 2c2.484 0 4.5 2.016 4.5 4.5v15c0 2.484-2.016 4.5-4.5 4.5h-15c-2.484 0-4.5-2.016-4.5-4.5v-15c0-2.484 2.016-4.5 4.5-4.5h15zM20 18.5v-6.813c-0.297 0.328-0.625 0.625-1 0.859-1.469 0.969-2.984 1.875-4.438 2.875-0.734 0.516-1.641 1.078-2.562 1.078v0 0 0 0c-0.922 0-1.828-0.562-2.562-1.078-1.453-1-2.984-1.891-4.438-2.891-0.359-0.234-0.641-0.578-1-0.844v6.813c0 0.828 0.672 1.5 1.5 1.5h13c0.828 0 1.5-0.672 1.5-1.5zM20 9.547c0-0.844-0.625-1.547-1.5-1.547h-13c-0.828 0-1.5 0.672-1.5 1.5 0 0.844 0.875 1.766 1.531 2.203 1.375 0.922 2.797 1.781 4.172 2.688 0.594 0.391 1.578 1.109 2.297 1.109s1.703-0.719 2.297-1.109c1.391-0.906 2.781-1.797 4.172-2.719 0.609-0.406 1.531-1.344 1.531-2.125z"></path>
</symbol>
<symbol id="icon-toggle-off" viewBox="0 0 32 28">
<title>toggle-off</title>
<path d="M18 14c0-4.406-3.594-8-8-8s-8 3.594-8 8 3.594 8 8 8 8-3.594 8-8zM30 14c0-4.406-3.594-8-8-8h-6.031c2.438 1.828 4.031 4.734 4.031 8s-1.594 6.172-4.031 8h6.031c4.406 0 8-3.594 8-8zM32 14c0 5.516-4.484 10-10 10h-12c-5.516 0-10-4.484-10-10s4.484-10 10-10h12c5.516 0 10 4.484 10 10z"></path>
</symbol>
<symbol id="icon-toggle-on" viewBox="0 0 32 28">
<title>toggle-on</title>
<path d="M0 14c0-5.516 4.484-10 10-10h12c5.516 0 10 4.484 10 10s-4.484 10-10 10h-12c-5.516 0-10-4.484-10-10zM22 22c4.406 0 8-3.594 8-8s-3.594-8-8-8-8 3.594-8 8 3.594 8 8 8z"></path>
</symbol>
<symbol id="icon-facebook-official" viewBox="0 0 24 28">
<title>facebook-official</title>
<path d="M22.672 2c0.734 0 1.328 0.594 1.328 1.328v21.344c0 0.734-0.594 1.328-1.328 1.328h-6.109v-9.297h3.109l0.469-3.625h-3.578v-2.312c0-1.047 0.281-1.75 1.797-1.75l1.906-0.016v-3.234c-0.328-0.047-1.469-0.141-2.781-0.141-2.766 0-4.672 1.687-4.672 4.781v2.672h-3.125v3.625h3.125v9.297h-11.484c-0.734 0-1.328-0.594-1.328-1.328v-21.344c0-0.734 0.594-1.328 1.328-1.328h21.344z"></path>
</symbol>
<symbol id="icon-shopping-bag" viewBox="0 0 28 28">
<title>shopping-bag</title>
<path d="M27.453 22l0.547 4.891c0.031 0.281-0.063 0.562-0.25 0.781-0.187 0.203-0.469 0.328-0.75 0.328h-26c-0.281 0-0.562-0.125-0.75-0.328-0.187-0.219-0.281-0.5-0.25-0.781l0.547-4.891h26.906zM26 8.891l1.344 12.109h-26.688l1.344-12.109c0.063-0.5 0.484-0.891 1-0.891h4v2c0 1.109 0.891 2 2 2s2-0.891 2-2v-2h6v2c0 1.109 0.891 2 2 2s2-0.891 2-2v-2h4c0.516 0 0.938 0.391 1 0.891zM20 6v4c0 0.547-0.453 1-1 1s-1-0.453-1-1v-4c0-2.203-1.797-4-4-4s-4 1.797-4 4v4c0 0.547-0.453 1-1 1s-1-0.453-1-1v-4c0-3.313 2.688-6 6-6s6 2.688 6 6z"></path>
</symbol>
<symbol id="icon-shopping-basket" viewBox="0 0 32 28">
<title>shopping-basket</title>
<path d="M30 12c1.109 0 2 0.891 2 2s-0.891 2-2 2h-0.234l-1.797 10.344c-0.172 0.953-1 1.656-1.969 1.656h-20c-0.969 0-1.797-0.703-1.969-1.656l-1.797-10.344h-0.234c-1.109 0-2-0.891-2-2s0.891-2 2-2h28zM7.578 24.5c0.547-0.047 0.969-0.531 0.922-1.078l-0.5-6.5c-0.047-0.547-0.531-0.969-1.078-0.922s-0.969 0.531-0.922 1.078l0.5 6.5c0.047 0.516 0.484 0.922 1 0.922h0.078zM14 23.5v-6.5c0-0.547-0.453-1-1-1s-1 0.453-1 1v6.5c0 0.547 0.453 1 1 1s1-0.453 1-1zM20 23.5v-6.5c0-0.547-0.453-1-1-1s-1 0.453-1 1v6.5c0 0.547 0.453 1 1 1s1-0.453 1-1zM25.5 23.578l0.5-6.5c0.047-0.547-0.375-1.031-0.922-1.078s-1.031 0.375-1.078 0.922l-0.5 6.5c-0.047 0.547 0.375 1.031 0.922 1.078h0.078c0.516 0 0.953-0.406 1-0.922zM7.438 4.562l-1.453 6.438h-2.063l1.578-6.891c0.406-1.828 2.016-3.109 3.891-3.109h2.609c0-0.547 0.453-1 1-1h6c0.547 0 1 0.453 1 1h2.609c1.875 0 3.484 1.281 3.891 3.109l1.578 6.891h-2.063l-1.453-6.438c-0.219-0.922-1.016-1.563-1.953-1.563h-2.609c0 0.547-0.453 1-1 1h-6c-0.547 0-1-0.453-1-1h-2.609c-0.938 0-1.734 0.641-1.953 1.563z"></path>
</symbol>
<symbol id="icon-question-circle-o" viewBox="0 0 24 28">
<title>question-circle-o</title>
<path d="M13.75 18.75v2.5c0 0.281-0.219 0.5-0.5 0.5h-2.5c-0.281 0-0.5-0.219-0.5-0.5v-2.5c0-0.281 0.219-0.5 0.5-0.5h2.5c0.281 0 0.5 0.219 0.5 0.5zM17.75 11c0 2.219-1.547 3.094-2.688 3.734-0.812 0.469-1.313 0.766-1.313 1.266v0.5c0 0.281-0.219 0.5-0.5 0.5h-2.5c-0.281 0-0.5-0.219-0.5-0.5v-1.062c0-1.922 1.375-2.531 2.484-3.031 0.938-0.438 1.516-0.734 1.516-1.437 0-0.906-1.141-1.578-2.172-1.578-0.547 0-1.125 0.172-1.484 0.422-0.344 0.234-0.672 0.578-1.25 1.297-0.094 0.125-0.234 0.187-0.391 0.187-0.109 0-0.219-0.031-0.297-0.094l-1.687-1.281c-0.203-0.156-0.25-0.453-0.109-0.672 1.281-2.016 3.078-3 5.453-3v0c2.562 0 5.437 2.031 5.437 4.75zM12 4c-5.516 0-10 4.484-10 10s4.484 10 10 10 10-4.484 10-10-4.484-10-10-10zM24 14c0 6.625-5.375 12-12 12s-12-5.375-12-12 5.375-12 12-12v0c6.625 0 12 5.375 12 12z"></path>
</symbol>
<symbol id="icon-snapchat-ghost" viewBox="0 0 26 28">
<title>snapchat-ghost</title>
<path d="M13.25 2c2.812-0.031 5.141 1.547 6.312 4.078 0.359 0.766 0.422 1.953 0.422 2.797 0 1-0.078 1.984-0.141 2.984 0.125 0.063 0.297 0.109 0.438 0.109 0.562 0 1.031-0.422 1.594-0.422 0.531 0 1.297 0.375 1.297 1 0 1.5-3.141 1.219-3.141 2.531 0 0.234 0.094 0.453 0.187 0.672 0.75 1.641 2.172 3.219 3.859 3.922 0.406 0.172 0.812 0.266 1.25 0.359 0.281 0.063 0.438 0.266 0.438 0.547 0 1.062-2.703 1.5-3.422 1.609-0.313 0.484-0.078 1.625-0.906 1.625-0.641 0-1.281-0.203-1.969-0.203-0.328 0-0.656 0.016-0.969 0.078-1.859 0.313-2.484 2.312-5.531 2.312-2.938 0-3.641-2-5.453-2.312-0.328-0.063-0.656-0.078-0.984-0.078-0.703 0-1.375 0.234-1.937 0.234-0.875 0-0.609-1.156-0.938-1.656-0.719-0.109-3.422-0.547-3.422-1.609 0-0.281 0.156-0.484 0.438-0.547 0.438-0.094 0.844-0.187 1.25-0.359 1.672-0.688 3.125-2.281 3.859-3.922 0.094-0.219 0.187-0.438 0.187-0.672 0-1.313-3.156-1.062-3.156-2.516 0-0.609 0.719-1 1.266-1 0.484 0 0.969 0.406 1.578 0.406 0.172 0 0.344-0.031 0.5-0.109-0.063-0.984-0.141-1.969-0.141-2.969 0-0.844 0.063-2.047 0.422-2.812 1.375-2.969 3.703-4.047 6.813-4.078z"></path>
</symbol>
<symbol id="icon-snapchat-square" viewBox="0 0 24 28">
<title>snapchat-square</title>
<path d="M20 17.938c0-0.219-0.125-0.375-0.344-0.422-1.422-0.297-2.5-1.297-3.094-2.609-0.063-0.125-0.109-0.25-0.109-0.391 0-0.703 1.937-0.562 1.937-1.563 0-0.422-0.516-0.688-0.891-0.688-0.344 0-0.625 0.25-0.984 0.25-0.063 0-0.125-0.016-0.187-0.031 0.047-0.594 0.078-1.203 0.078-1.797 0-0.531-0.031-1.281-0.266-1.781-0.75-1.625-2.187-2.578-3.984-2.578-1.953 0-3.437 0.734-4.297 2.578-0.234 0.5-0.281 1.25-0.281 1.797 0 0.594 0.047 1.188 0.094 1.781-0.078 0.016-0.156 0.031-0.234 0.031-0.344 0-0.641-0.25-0.969-0.25-0.391 0-0.859 0.266-0.859 0.703 0 0.969 1.937 0.844 1.937 1.547 0 0.141-0.047 0.266-0.109 0.391-0.609 1.313-1.656 2.297-3.094 2.609-0.219 0.047-0.344 0.203-0.344 0.422 0 0.734 1.656 1 2.156 1.078 0.141 0.375 0.078 1.031 0.625 1.031 0.406 0 0.797-0.156 1.203-0.156 1.656 0 2.094 1.484 4 1.484 1.984 0 2.359-1.484 4.031-1.484 0.406 0 0.812 0.141 1.219 0.141 0.531 0 0.484-0.656 0.609-1.016 0.5-0.078 2.156-0.344 2.156-1.078zM24 6.5v15c0 2.484-2.016 4.5-4.5 4.5h-15c-2.484 0-4.5-2.016-4.5-4.5v-15c0-2.484 2.016-4.5 4.5-4.5h15c2.484 0 4.5 2.016 4.5 4.5z"></path>
</symbol>
<symbol id="icon-address-card" viewBox="0 0 32 28">
<title>address-card</title>
<path d="M16 17.672c0-2.422-0.594-5.109-3.063-5.109-0.766 0.438-1.797 1.188-2.938 1.188s-2.172-0.75-2.938-1.188c-2.469 0-3.063 2.688-3.063 5.109 0 1.359 0.891 2.328 2 2.328h8c1.109 0 2-0.969 2-2.328zM13.547 9.547c0-1.953-1.594-3.547-3.547-3.547s-3.547 1.594-3.547 3.547c0 1.969 1.594 3.547 3.547 3.547s3.547-1.578 3.547-3.547zM28 17.5v-1c0-0.281-0.219-0.5-0.5-0.5h-9c-0.281 0-0.5 0.219-0.5 0.5v1c0 0.281 0.219 0.5 0.5 0.5h9c0.281 0 0.5-0.219 0.5-0.5zM28 13.438v-0.875c0-0.313-0.25-0.562-0.562-0.562h-8.875c-0.313 0-0.562 0.25-0.562 0.562v0.875c0 0.313 0.25 0.562 0.562 0.562h8.875c0.313 0 0.562-0.25 0.562-0.562zM28 9.5v-1c0-0.281-0.219-0.5-0.5-0.5h-9c-0.281 0-0.5 0.219-0.5 0.5v1c0 0.281 0.219 0.5 0.5 0.5h9c0.281 0 0.5-0.219 0.5-0.5zM32 4.5v19c0 1.375-1.125 2.5-2.5 2.5h-5.5v-1.5c0-0.281-0.219-0.5-0.5-0.5h-1c-0.281 0-0.5 0.219-0.5 0.5v1.5h-12v-1.5c0-0.281-0.219-0.5-0.5-0.5h-1c-0.281 0-0.5 0.219-0.5 0.5v1.5h-5.5c-1.375 0-2.5-1.125-2.5-2.5v-19c0-1.375 1.125-2.5 2.5-2.5h27c1.375 0 2.5 1.125 2.5 2.5z"></path>
</symbol>
<symbol id="icon-address-card-o" viewBox="0 0 32 28">
<title>address-card-o</title>
<path d="M16 17.672c0 1.359-0.891 2.328-2 2.328h-8c-1.109 0-2-0.969-2-2.328 0-2.422 0.594-5.109 3.062-5.109 0.766 0.438 1.797 1.188 2.938 1.188s2.172-0.75 2.938-1.188c2.469 0 3.062 2.688 3.062 5.109zM13.547 9.547c0 1.969-1.594 3.547-3.547 3.547s-3.547-1.578-3.547-3.547c0-1.953 1.594-3.547 3.547-3.547s3.547 1.594 3.547 3.547zM28 16.5v1c0 0.281-0.219 0.5-0.5 0.5h-9c-0.281 0-0.5-0.219-0.5-0.5v-1c0-0.281 0.219-0.5 0.5-0.5h9c0.281 0 0.5 0.219 0.5 0.5zM28 12.563v0.875c0 0.313-0.25 0.562-0.562 0.562h-8.875c-0.313 0-0.562-0.25-0.562-0.562v-0.875c0-0.313 0.25-0.562 0.562-0.562h8.875c0.313 0 0.562 0.25 0.562 0.562zM28 8.5v1c0 0.281-0.219 0.5-0.5 0.5h-9c-0.281 0-0.5-0.219-0.5-0.5v-1c0-0.281 0.219-0.5 0.5-0.5h9c0.281 0 0.5 0.219 0.5 0.5zM30 23.5v-19c0-0.266-0.234-0.5-0.5-0.5h-27c-0.266 0-0.5 0.234-0.5 0.5v19c0 0.266 0.234 0.5 0.5 0.5h5.5v-1.5c0-0.281 0.219-0.5 0.5-0.5h1c0.281 0 0.5 0.219 0.5 0.5v1.5h12v-1.5c0-0.281 0.219-0.5 0.5-0.5h1c0.281 0 0.5 0.219 0.5 0.5v1.5h5.5c0.266 0 0.5-0.234 0.5-0.5zM32 4.5v19c0 1.375-1.125 2.5-2.5 2.5h-27c-1.375 0-2.5-1.125-2.5-2.5v-19c0-1.375 1.125-2.5 2.5-2.5h27c1.375 0 2.5 1.125 2.5 2.5z"></path>
</symbol>
<symbol id="icon-user-circle" viewBox="0 0 28 28">
<title>user-circle</title>
<path d="M23.797 20.922c-0.406-2.922-1.594-5.516-4.25-5.875-1.375 1.5-3.359 2.453-5.547 2.453s-4.172-0.953-5.547-2.453c-2.656 0.359-3.844 2.953-4.25 5.875 2.172 3.063 5.75 5.078 9.797 5.078s7.625-2.016 9.797-5.078zM20 10c0-3.313-2.688-6-6-6s-6 2.688-6 6 2.688 6 6 6 6-2.688 6-6zM28 14c0 7.703-6.25 14-14 14-7.734 0-14-6.281-14-14 0-7.734 6.266-14 14-14s14 6.266 14 14z"></path>
</symbol>
<symbol id="icon-user-circle-o" viewBox="0 0 28 28">
<title>user-circle-o</title>
<path d="M14 0c7.734 0 14 6.266 14 14 0 7.688-6.234 14-14 14-7.75 0-14-6.297-14-14 0-7.734 6.266-14 14-14zM23.672 21.109c1.453-2 2.328-4.453 2.328-7.109 0-6.609-5.391-12-12-12s-12 5.391-12 12c0 2.656 0.875 5.109 2.328 7.109 0.562-2.797 1.922-5.109 4.781-5.109 1.266 1.234 2.984 2 4.891 2s3.625-0.766 4.891-2c2.859 0 4.219 2.312 4.781 5.109zM20 11c0-3.313-2.688-6-6-6s-6 2.688-6 6 2.688 6 6 6 6-2.688 6-6z"></path>
</symbol>
</defs>
</svg>
